<?xml version="1.0" encoding="UTF-8"?>
<svg id="Layer_1" xmlns="http://www.w3.org/2000/svg" xmlns:xlink="http://www.w3.org/1999/xlink" version="1.1" viewBox="0 0 520.02 400.88">
  <!-- Generator: Adobe Illustrator 30.1.0, SVG Export Plug-In . SVG Version: 2.1.1 Build 136)  -->
  <defs>
    <style>
      .st0 {
        fill: none;
      }

      .st1 {
        fill: #c0d85b;
      }

      .st2 {
        fill: #22a070;
      }

      .st3 {
        clip-path: url(#clippath-1);
      }

      .st4 {
        fill: #7ec185;
      }

      .st5 {
        opacity: .1;
      }

      .st6 {
        fill: #004747;
      }

      .st7 {
        clip-path: url(#clippath);
      }
    </style>
    <clipPath id="clippath">
      <rect class="st0" width="520.02" height="400.88"/>
    </clipPath>
    <clipPath id="clippath-1">
      <rect class="st0" y="442.14" width="203.93" height="242.15"/>
    </clipPath>
  </defs>
  <rect class="st6" width="520.02" height="400.88"/>
  <g class="st7">
    <path class="st1" d="M374.6,419.75c-2.72,2.45-2.75,6.71-.06,9.2l258.56,238.84c1.31,1.18,3.39.25,3.39-1.51v-147.33c0-2.56-1.09-5.01-3-6.72l-172.36-159.08c-3.49-3.22-8.86-3.26-12.39-.08l-74.14,66.68Z"/>
    <path class="st4" d="M461.79,323.1l-327.99,295.82c-1.31,1.18-3.39.25-3.39-1.51v-93.54c0-2.56,1.09-5,2.99-6.72L455.39,226.75c3.62-3.26,9.39-.7,9.39,4.18v85.46c0,2.56-1.09,5-2.99,6.72Z"/>
    <path class="st1" d="M-145.41,419.75c-2.72,2.45-2.75,6.71-.06,9.2l258.56,238.84c1.31,1.18,3.39.25,3.39-1.51v-147.33c0-2.56-1.09-5.01-3-6.72L-58.88,353.15c-3.49-3.22-8.86-3.26-12.39-.08l-74.14,66.68Z"/>
    <path class="st2" d="M466.81,140.35c2-1.87,5.1-1.88,7.12-.04l158.37,144.62c2.67,2.4,4.19,5.83,4.19,9.42v51.15c0,1.76-2.08,2.69-3.39,1.51l-193.14-173.83c-2.29-2.06-2.32-5.64-.07-7.74l26.91-25.09Z"/>
    <path class="st4" d="M478.16,236.64c0-5.03,5.98-7.65,9.68-4.25l144.46,132.64c2.67,2.4,4.19,5.83,4.19,9.42v117.99c0,1.37-1.35,2.38-2.66,1.96l-152.67-140.04c-1.91-1.71-3-4.16-3-6.72v-111Z"/>
    <path class="st1" d="M374.6,18.87c-2.72,2.45-2.75,6.71-.06,9.2l258.56,238.84c1.31,1.18,3.39.25,3.39-1.51V118.07c0-2.56-1.09-5.01-3-6.72L461.13-47.73c-3.49-3.22-8.86-3.26-12.39-.08l-74.14,66.68Z"/>
    <path class="st1" d="M453.92,132.8L138.83,416.38c-3.25,2.92-8.42.62-8.42-3.75v-89.39c0-3.59,1.52-7.02,4.2-9.42L396.59,78.4c2.57-2.31,6.48-2.29,9.02.05l48.36,44.42c2.91,2.68,2.89,7.28-.05,9.93Z"/>
    <path class="st2" d="M363.61,37.75c-2.38-2.2-6.04-2.23-8.45-.06l-220.56,198.37c-2.67,2.4-4.2,5.83-4.2,9.42v48.8c0,1.76,2.08,2.69,3.39,1.51l252.77-227.49c2.74-2.47,2.77-6.75.06-9.26l-23.02-21.3Z"/>
    <path class="st2" d="M-53.21,140.35c2-1.87,5.1-1.88,7.12-.04l158.37,144.62c2.67,2.4,4.19,5.83,4.19,9.42v51.15c0,1.76-2.08,2.69-3.39,1.51L-80.05,173.18c-2.29-2.06-2.32-5.64-.07-7.74l26.91-25.09Z"/>
    <path class="st4" d="M461.79-77.78L133.8,218.04c-1.31,1.18-3.39.25-3.39-1.51v-93.54c0-2.56,1.09-5,2.99-6.72L455.39-174.13c3.62-3.26,9.39-.7,9.39,4.18v85.46c0,2.56-1.09,5-2.99,6.72Z"/>
    <path class="st2" d="M448.67,214.21L132.74,498.6c-.9.81-2.33.17-2.33-1.04v-48.97c0-3.75,1.59-7.32,4.38-9.83l284.17-255.75c3.15-2.83,7.96-2.68,10.93.33l19.13,19.44c3.16,3.21,3,8.41-.35,11.43Z"/>
    <path class="st4" d="M-41.86,236.64c0-5.03,5.98-7.65,9.68-4.25l144.46,132.64c2.67,2.4,4.19,5.83,4.19,9.42v117.99c0,1.37-1.35,2.38-2.66,1.96L-38.86,354.36c-1.91-1.71-3-4.16-3-6.72v-111Z"/>
    <path class="st1" d="M-145.41,18.87c-2.72,2.45-2.75,6.71-.06,9.2L113.08,266.91c1.31,1.18,3.39.25,3.39-1.51V118.07c0-2.56-1.09-5.01-3-6.72L-58.88-47.73c-3.49-3.22-8.86-3.26-12.39-.08L-145.41,18.87Z"/>
    <path class="st4" d="M478.16-164.24c0-5.03,5.98-7.65,9.68-4.25l144.46,132.64c2.67,2.4,4.19,5.83,4.19,9.42v117.99c0,1.37-1.35,2.38-2.66,1.96L481.16-46.52c-1.91-1.71-3-4.16-3-6.72v-111Z"/>
    <path class="st1" d="M453.92-268.08L138.83,15.5c-3.25,2.92-8.42.62-8.42-3.75v-89.39c0-3.59,1.52-7.02,4.2-9.42l261.99-235.42c2.57-2.31,6.48-2.29,9.02.05l48.36,44.42c2.91,2.68,2.89,7.28-.05,9.93Z"/>
    <path class="st2" d="M448.67-186.67L132.74,97.72c-.9.81-2.33.17-2.33-1.04v-48.97c0-3.75,1.59-7.32,4.38-9.83l284.17-255.75c3.15-2.83,7.96-2.68,10.93.33l19.13,19.44c3.16,3.21,3,8.41-.35,11.43Z"/>
    <path class="st4" d="M-41.86-164.24c0-5.03,5.98-7.65,9.68-4.25L112.28-35.85c2.67,2.4,4.19,5.83,4.19,9.42v117.99c0,1.37-1.35,2.38-2.66,1.96L-38.86-46.52c-1.91-1.71-3-4.16-3-6.72v-111Z"/>
  </g>
  <g class="st5">
    <g class="st3">
      <path class="st2" d="M193.66,384.48l-113.13,101.82c-.79.71-2.04.15-2.04-.91v-57.87c0-2.16.92-4.22,2.52-5.67l112.9-101.45c.75-.67,1.93-.14,1.93.86v58.31c0,1.87-.79,3.66-2.19,4.91Z"/>
      <path class="st2" d="M195.85,396.52c-.03-1.05-1.28-1.58-2.06-.88l-114.3,102.87c-.64.58-1.01,1.4-1.01,2.26v31.66c0,.73.86,1.11,1.4.62l114.95-103.47c.64-.58,1.01-1.4,1.01-2.26v-30.81Z"/>
      <path class="st2" d="M1.5,393.2l66.07,59.47c1.61,1.45,2.52,3.51,2.52,5.67v71.01c0,.83-.81,1.43-1.6,1.18L1.8,470.58C.66,469.55,0,468.08,0,466.54v-72.67c0-.78.92-1.19,1.5-.67Z"/>
    </g>
  </g>
</svg>