<?xml version="1.0" encoding="UTF-8"?>
<svg id="Layer_1" xmlns="http://www.w3.org/2000/svg" xmlns:xlink="http://www.w3.org/1999/xlink" version="1.1" viewBox="0 0 203.93 242.15">
  <!-- Generator: Adobe Illustrator 30.1.0, SVG Export Plug-In . SVG Version: 2.1.1 Build 136)  -->
  <defs>
    <style>
      .st0 {
        fill: none;
      }

      .st1 {
        fill: #c0d85b;
      }

      .st2 {
        fill: #22a070;
      }

      .st3 {
        clip-path: url(#clippath-1);
      }

      .st4 {
        fill: #7ec185;
      }

      .st5 {
        opacity: .1;
      }

      .st6 {
        fill: #004747;
      }

      .st7 {
        clip-path: url(#clippath);
      }
    </style>
    <clipPath id="clippath">
      <rect class="st0" y="-442.14" width="520.02" height="400.88"/>
    </clipPath>
    <clipPath id="clippath-1">
      <rect class="st0" width="203.93" height="242.15"/>
    </clipPath>
  </defs>
  <g class="st7">
    <path class="st4" d="M461.79-119.03L133.8,176.79c-1.31,1.18-3.39.25-3.39-1.51v-93.54c0-2.56,1.09-5,2.99-6.72L455.39-215.38c3.62-3.26,9.39-.7,9.39,4.18v85.46c0,2.56-1.09,5-2.99,6.72Z"/>
    <path class="st1" d="M-145.41-22.39c-2.72,2.45-2.75,6.71-.06,9.2L113.08,225.65c1.31,1.18,3.39.25,3.39-1.51V76.81c0-2.56-1.09-5.01-3-6.72L-58.88-88.99c-3.49-3.22-8.86-3.26-12.39-.08L-145.41-22.39Z"/>
    <path class="st2" d="M448.67-227.92L132.74,56.47c-.9.81-2.33.17-2.33-1.04V6.46c0-3.75,1.59-7.32,4.38-9.83l284.17-255.75c3.15-2.83,7.96-2.68,10.93.33l19.13,19.44c3.16,3.21,3,8.41-.35,11.43Z"/>
    <path class="st4" d="M-41.86-205.5c0-5.03,5.98-7.65,9.68-4.25L112.28-77.1c2.67,2.4,4.19,5.83,4.19,9.42V50.3c0,1.37-1.35,2.38-2.66,1.96L-38.86-87.77c-1.91-1.71-3-4.16-3-6.72v-111Z"/>
  </g>
  <rect class="st6" width="203.93" height="242.15"/>
  <g class="st5">
    <g class="st3">
      <path class="st2" d="M193.66,184.49l-113.13,101.82c-.79.71-2.04.15-2.04-.91v-57.87c0-2.16.92-4.22,2.52-5.67l112.9-101.45c.75-.67,1.93-.14,1.93.86v58.31c0,1.87-.79,3.66-2.19,4.91Z"/>
      <path class="st2" d="M194.05,108.85l-113.52,102.17c-.79.71-2.04.15-2.04-.91v-29.37c0-2.16.92-4.22,2.52-5.67l113.33-101.93c.58-.52,1.5-.11,1.5.67v31c0,1.54-.65,3.01-1.8,4.04Z"/>
      <path class="st2" d="M1.73,145.22l65.84,59.26c1.61,1.45,2.52,3.51,2.52,5.67v30.78c0,1.06-1.25,1.62-2.04.91L1.8,182.2C.65,181.17,0,179.7,0,178.16v-32.17c0-.9,1.07-1.37,1.73-.77Z"/>
      <path class="st2" d="M194.14,61.97l-113.61,102.25c-.79.71-2.04.15-2.04-.91v-56.3c0-1.54.65-3.01,1.8-4.04L194.44.23c.58-.52,1.5-.11,1.5.67v57.02c0,1.54-.65,3.01-1.8,4.04Z"/>
      <path class="st2" d="M195.85,196.54c-.03-1.05-1.28-1.58-2.06-.88l-114.3,102.87c-.64.58-1.01,1.4-1.01,2.26v31.66c0,.73.86,1.11,1.4.62l114.95-103.47c.64-.58,1.01-1.4,1.01-2.26v-30.81Z"/>
      <path class="st2" d="M1.5,193.22l66.07,59.47c1.61,1.45,2.52,3.51,2.52,5.67v71.01c0,.83-.81,1.43-1.6,1.18L1.8,270.6C.66,269.57,0,268.09,0,266.55v-72.67c0-.78.92-1.19,1.5-.67Z"/>
      <path class="st2" d="M70.1,104.05v88.67c0,1.06-1.25,1.62-2.04.91L1.8,133.99C.65,132.96,0,131.49,0,129.95V40.63c0-.78.92-1.19,1.5-.67l66.79,60.04c1.15,1.03,1.8,2.5,1.8,4.04Z"/>
      <path class="st2" d="M193.66-57.66L80.53,44.16c-.79.71-2.04.15-2.04-.91V-14.62c0-2.16.92-4.22,2.52-5.67l112.9-101.45c.75-.67,1.93-.14,1.93.86v58.31c0,1.87-.79,3.66-2.19,4.91Z"/>
      <path class="st2" d="M195.85-45.62c-.03-1.05-1.28-1.58-2.06-.88L79.49,56.38c-.64.58-1.01,1.4-1.01,2.26v31.66c0,.73.86,1.11,1.4.62L194.84-12.55c.64-.58,1.01-1.4,1.01-2.26v-30.81Z"/>
      <path class="st2" d="M1.5-48.94L67.58,10.53c1.61,1.45,2.52,3.51,2.52,5.67v71.01c0,.83-.81,1.43-1.6,1.18L1.8,28.45C.66,27.41,0,25.94,0,24.4V-48.27c0-.78.92-1.19,1.5-.67Z"/>
    </g>
  </g>
</svg>