<?xml version="1.0" encoding="UTF-8"?>
<svg id="Layer_1" xmlns="http://www.w3.org/2000/svg" xmlns:xlink="http://www.w3.org/1999/xlink" version="1.1" viewBox="0 0 1366 768">
  <!-- Generator: Adobe Illustrator 30.1.0, SVG Export Plug-In . SVG Version: 2.1.1 Build 136)  -->
  <defs>
    <style>
      .st0 {
        fill: none;
      }

      .st1 {
        fill: #22a070;
      }

      .st2 {
        fill: #004747;
      }

      .st3 {
        fill: url(#New_Pattern_3);
        opacity: .1;
      }
    </style>
    <pattern id="New_Pattern_3" data-name="New Pattern 3" x="0" y="0" width="96.83" height="114.98" patternTransform="translate(0 -114.98)" patternUnits="userSpaceOnUse" viewBox="0 0 96.83 114.98">
      <g>
        <rect class="st0" width="96.83" height="114.98"/>
        <g>
          <path class="st1" d="M91.96,87.6l-53.72,48.35c-.37.34-.97.07-.97-.43v-27.48c0-1.03.44-2.01,1.2-2.69l53.61-48.17c.35-.32.92-.07.92.41v27.69c0,.89-.38,1.74-1.04,2.33Z"/>
          <path class="st1" d="M92.14,51.68l-53.9,48.51c-.37.34-.97.07-.97-.43v-13.95c0-1.03.44-2.01,1.2-2.69l53.81-48.4c.28-.25.71-.05.71.32v14.72c0,.73-.31,1.43-.85,1.92Z"/>
          <path class="st1" d="M.82,68.95l31.26,28.14c.76.69,1.2,1.67,1.2,2.69v14.62c0,.5-.6.77-.97.43L.85,86.51C.31,86.02,0,85.33,0,84.59v-15.27c0-.43.51-.65.82-.37Z"/>
          <path class="st1" d="M92.18,29.42l-53.95,48.55c-.37.34-.97.07-.97-.43v-26.73c0-.73.31-1.43.85-1.92L92.32.11c.28-.25.71-.05.71.32v27.07c0,.73-.31,1.43-.85,1.92Z"/>
          <path class="st1" d="M92.99,93.32c-.02-.5-.61-.75-.98-.42l-54.27,48.84c-.3.27-.48.66-.48,1.07v15.04c0,.35.41.53.67.3l54.58-49.13c.3-.27.48-.66.48-1.07v-14.63Z"/>
          <path class="st1" d="M.71,91.75l31.37,28.24c.76.69,1.2,1.67,1.2,2.69v33.72c0,.39-.39.68-.76.56L.86,128.49C.31,128,0,127.3,0,126.57v-34.5c0-.37.44-.57.71-.32Z"/>
          <path class="st1" d="M33.29,49.4v42.1c0,.5-.6.77-.97.43L.85,63.62C.31,63.13,0,62.44,0,61.7V19.29c0-.37.44-.57.71-.32l31.72,28.51c.54.49.86,1.19.86,1.92Z"/>
        </g>
        <g>
          <path class="st1" d="M91.96-27.38L38.24,20.97c-.37.34-.97.07-.97-.43V-6.94c0-1.03.44-2.01,1.2-2.69l53.61-48.17c.35-.32.92-.07.92.41v27.69c0,.89-.38,1.74-1.04,2.33Z"/>
          <path class="st1" d="M92.99-21.66c-.02-.5-.61-.75-.98-.42L37.75,26.77c-.3.27-.48.66-.48,1.07v15.04c0,.35.41.53.67.3L92.52-5.96c.3-.27.48-.66.48-1.07v-14.63Z"/>
          <path class="st1" d="M.71-23.24L32.09,5c.76.69,1.2,1.67,1.2,2.69v33.72c0,.39-.39.68-.76.56L.86,13.51C.31,13.02,0,12.32,0,11.59V-22.92c0-.37.44-.57.71-.32Z"/>
        </g>
      </g>
    </pattern>
  </defs>
  <rect class="st2" width="1366" height="768"/>
  <rect class="st3" width="1366" height="768"/>
</svg>