<?xml version="1.0" encoding="UTF-8"?>
<svg id="Layer_1" xmlns="http://www.w3.org/2000/svg" xmlns:xlink="http://www.w3.org/1999/xlink" version="1.1" viewBox="0 0 100 100">
  <!-- Generator: Adobe Illustrator 30.1.0, SVG Export Plug-In . SVG Version: 2.1.1 Build 136)  -->
  <defs>
    <style>
      .st0 {
        fill: url(#linear-gradient2);
      }

      .st1 {
        fill: url(#linear-gradient1);
      }

      .st2 {
        fill: url(#linear-gradient3);
      }

      .st3 {
        fill: url(#linear-gradient);
      }
    </style>
    <linearGradient id="linear-gradient" x1="39.15" y1="93.52" x2="39.15" y2="7.05" gradientUnits="userSpaceOnUse">
      <stop offset="0" stop-color="#22a070"/>
      <stop offset="1" stop-color="#b7db57"/>
    </linearGradient>
    <linearGradient id="linear-gradient1" x1="79.82" y1="93.52" x2="79.82" y2="7.05" xlink:href="#linear-gradient"/>
    <linearGradient id="linear-gradient2" x1="83.16" y1="93.52" x2="83.16" y2="7.05" xlink:href="#linear-gradient"/>
    <linearGradient id="linear-gradient3" x1="76.22" y1="93.52" x2="76.22" y2="7.05" xlink:href="#linear-gradient"/>
  </defs>
  <path class="st3" d="M62.59,63.04c-4.81-2.09-9.88-3.42-15.08-3.97v-3.82h4.53c6.17,0,11.2-5.02,11.2-11.2v-12.05c0-13.39-10.9-24.29-24.29-24.29s-24.29,10.9-24.29,24.29v12.05c0,6.17,5.02,11.2,11.2,11.2h4.94v3.85c-4.9.54-9.67,1.77-14.22,3.69l-.71.3c-5.26,2.21-8.66,7.33-8.66,13.04v16.16h63.87v-16.27c0-5.63-3.33-10.72-8.5-12.97ZM34.45,34.62c.49.03,11.1.57,18.94-5.74v11.23c0,7.85-6.39,14.24-14.23,14.24s-14.23-6.39-14.23-14.24v-7.41c1.78-.41,5.4-1.46,8.3-3.66v5.51l1.22.07ZM33.4,59.05v-3.14c1.8.66,3.73,1.04,5.76,1.04s3.96-.38,5.76-1.04v3.24c0,3.17-2.58,5.76-5.76,5.76-2.56,0-4.73-1.68-5.48-3.99l-.28-1.86ZM17.26,44.06v-12.05c0-11.96,9.73-21.69,21.69-21.69s21.69,9.73,21.69,21.69v12.05c0,4.74-3.86,8.6-8.6,8.6h-1.7c3.45-3.09,5.64-7.56,5.64-12.54v-17.54l-2.25,2.44c-5.7,6.17-14.66,6.95-17.91,7.02v-9.84l-2.33,2.99c-3.1,3.99-10.02,5.16-10.09,5.17l-1.09.18v9.58c0,4.99,2.19,9.46,5.64,12.54h-2.11c-4.74,0-8.6-3.86-8.6-8.6ZM9.82,89.68v-13.56c0-4.66,2.77-8.83,7.07-10.64l.71-.3c1.26-.53,2.54-1,3.84-1.42l3.14,8.55-5.85,5.76,8.44,11.61H9.82ZM30.37,89.68l-8.23-11.33,5.45-5.36-3.66-9.96c2.37-.63,4.78-1.08,7.23-1.35l4.19,28h-4.98ZM37.98,89.68l-3.54-23.63c1.34.92,2.96,1.46,4.71,1.46,2.14,0,4.09-.82,5.57-2.15l-3.64,24.32h-3.1ZM43.71,89.68l4.18-27.95c2.44.29,4.84.77,7.19,1.42l-3.62,9.85,5.45,5.36-8.23,11.33h-4.98ZM68.49,89.68h-16.58l8.44-11.61-5.85-5.76,3.09-8.41c1.34.45,2.67.95,3.97,1.52,4.21,1.83,6.93,5.99,6.93,10.58v13.67Z"/>
  <path class="st1" d="M85.21,46.93v-19.73h1.17v-2.6h-13.13v2.6h1.17v19.73l-7.58,15.52h25.94l-7.58-15.52ZM82.61,27.2v9.52h-5.58v-9.52h5.58ZM77.02,47.54v-8.21h5.58v8.21l6.01,12.32h-17.61l6.01-12.32Z"/>
  <path class="st0" d="M83.16,20.85c1.15,0,2.08-.93,2.08-2.08s-.93-2.08-2.08-2.08-2.08.93-2.08,2.08.93,2.08,2.08,2.08ZM83.16,18.25c.28,0,.52.23.52.52s-.23.52-.52.52-.52-.23-.52-.52.23-.52.52-.52Z"/>
  <path class="st2" d="M76.22,17.84c1.85,0,3.36-1.51,3.36-3.36s-1.51-3.36-3.36-3.36-3.36,1.51-3.36,3.36,1.51,3.36,3.36,3.36ZM76.22,13.71c.42,0,.76.34.76.76s-.34.76-.76.76-.76-.34-.76-.76.34-.76.76-.76Z"/>
</svg>