<?xml version="1.0" encoding="UTF-8"?>
<svg id="Layer_1" xmlns="http://www.w3.org/2000/svg" xmlns:xlink="http://www.w3.org/1999/xlink" version="1.1" viewBox="0 0 100 100">
  <!-- Generator: Adobe Illustrator 30.1.0, SVG Export Plug-In . SVG Version: 2.1.1 Build 136)  -->
  <defs>
    <style>
      .st0 {
        fill: url(#linear-gradient2);
      }

      .st1 {
        fill: url(#linear-gradient1);
      }

      .st2 {
        fill: url(#linear-gradient9);
      }

      .st3 {
        fill: url(#linear-gradient3);
      }

      .st4 {
        fill: url(#linear-gradient6);
      }

      .st5 {
        fill: url(#linear-gradient8);
      }

      .st6 {
        fill: url(#linear-gradient7);
      }

      .st7 {
        fill: url(#linear-gradient5);
      }

      .st8 {
        fill: url(#linear-gradient4);
      }

      .st9 {
        fill: url(#linear-gradient12);
      }

      .st10 {
        fill: url(#linear-gradient11);
      }

      .st11 {
        fill: url(#linear-gradient10);
      }

      .st12 {
        fill: url(#linear-gradient);
      }
    </style>
    <linearGradient id="linear-gradient" x1="50" y1="92.15" x2="50" y2="9.07" gradientUnits="userSpaceOnUse">
      <stop offset="0" stop-color="#22a070"/>
      <stop offset="1" stop-color="#b7db57"/>
    </linearGradient>
    <linearGradient id="linear-gradient1" x1="33.66" y1="90.9" x2="33.66" y2="9.05" xlink:href="#linear-gradient"/>
    <linearGradient id="linear-gradient2" x1="41.83" y1="90.9" x2="41.83" y2="9.05" xlink:href="#linear-gradient"/>
    <linearGradient id="linear-gradient3" x1="50" y1="90.9" x2="50" y2="9.05" xlink:href="#linear-gradient"/>
    <linearGradient id="linear-gradient4" x1="58.17" y1="90.9" x2="58.17" y2="9.05" xlink:href="#linear-gradient"/>
    <linearGradient id="linear-gradient5" x1="66.34" y1="90.9" x2="66.34" y2="9.05" xlink:href="#linear-gradient"/>
    <linearGradient id="linear-gradient6" x1="34.74" y1="93.62" x2="34.74" y2="-1.88" xlink:href="#linear-gradient"/>
    <linearGradient id="linear-gradient7" x1="42.37" y1="93.62" x2="42.37" y2="-1.88" xlink:href="#linear-gradient"/>
    <linearGradient id="linear-gradient8" x1="27.11" y1="93.62" x2="27.11" y2="-1.88" xlink:href="#linear-gradient"/>
    <linearGradient id="linear-gradient9" x1="50" y1="93.62" x2="50" y2="-1.88" xlink:href="#linear-gradient"/>
    <linearGradient id="linear-gradient10" x1="57.63" y1="93.62" x2="57.63" y2="-1.88" xlink:href="#linear-gradient"/>
    <linearGradient id="linear-gradient11" x1="65.26" y1="93.62" x2="65.26" y2="-1.88" xlink:href="#linear-gradient"/>
    <linearGradient id="linear-gradient12" x1="72.89" y1="93.62" x2="72.89" y2="-1.88" xlink:href="#linear-gradient"/>
  </defs>
  <path class="st12" d="M84.31,68.33v-2.6h-7.02v-12.05h2.22v-2.6h-2.25c-.59-12.14-9.16-22.23-20.57-25.11v-13.01h-5.39v-5.24h-2.6v5.24h-5.39v13.01c-11.41,2.89-19.97,12.97-20.57,25.11h-2.25v2.6h2.22v12.05h-7.02v2.6h1.68v21.35h-1.68v2.6h68.61v-2.6h-1.68v-21.35h1.68ZM49.43,28.1h1.13c1.49,1.71,3.87,9.48,4.02,22.98h-9.17c.15-13.5,2.53-21.27,4.02-22.98ZM57.18,51.08c-.1-6.94-.96-17.25-3.43-22.54,6.11,2.66,10.7,11.68,11.05,22.54h-7.62ZM46.25,28.54c-2.48,5.29-3.34,15.6-3.43,22.54h-7.62c.35-10.86,4.94-19.88,11.05-22.54ZM74.65,51.08h-7.25c-.28-8.92-3.3-16.72-7.77-21.38,8.45,3.59,14.5,11.76,15.02,21.38ZM45.91,15.56h8.18v9.88c-1.33-.2-2.7-.31-4.09-.31s-2.76.11-4.09.31v-9.88ZM40.37,29.7c-4.47,4.66-7.49,12.47-7.77,21.38h-7.25c.52-9.62,6.57-17.79,15.02-21.38ZM32.58,53.73h42.11v11.96H25.31v-11.96h7.27ZM80.02,89.64H19.98v-21.3h60.05v21.3Z"/>
  <rect class="st1" x="32.36" y="57.82" width="2.6" height="3.81"/>
  <rect class="st0" x="40.53" y="57.82" width="2.6" height="3.81"/>
  <rect class="st3" x="48.7" y="57.82" width="2.6" height="3.81"/>
  <rect class="st8" x="56.87" y="57.82" width="2.6" height="3.81"/>
  <rect class="st7" x="65.04" y="57.82" width="2.6" height="3.81"/>
  <rect class="st4" x="33.44" y="74.6" width="2.6" height="8.77"/>
  <rect class="st6" x="41.07" y="74.6" width="2.6" height="8.77"/>
  <rect class="st5" x="25.81" y="74.6" width="2.6" height="8.77"/>
  <rect class="st2" x="48.7" y="74.6" width="2.6" height="8.77"/>
  <rect class="st11" x="56.33" y="74.6" width="2.6" height="8.77"/>
  <rect class="st10" x="63.96" y="74.6" width="2.6" height="8.77"/>
  <rect class="st9" x="71.59" y="74.6" width="2.6" height="8.77"/>
</svg>