<?xml version="1.0" encoding="UTF-8"?>
<svg id="Layer_1" xmlns="http://www.w3.org/2000/svg" xmlns:xlink="http://www.w3.org/1999/xlink" version="1.1" viewBox="0 0 100 100">
  <!-- Generator: Adobe Illustrator 30.1.0, SVG Export Plug-In . SVG Version: 2.1.1 Build 136)  -->
  <defs>
    <style>
      .st0 {
        fill: url(#linear-gradient);
      }
    </style>
    <linearGradient id="linear-gradient" x1="50" y1="98.8" x2="50" y2="22.22" gradientUnits="userSpaceOnUse">
      <stop offset="0" stop-color="#22a070"/>
      <stop offset="1" stop-color="#b7db57"/>
    </linearGradient>
  </defs>
  <path class="st0" d="M78.5,69.67s-.08,0-.13,0l-3.61-28.39c4.88-1.21,8.51-5.61,8.51-10.86,0-6.18-5.02-11.2-11.2-11.2-4.01,0-7.53,2.13-9.51,5.31l-15.05-7.05c.18-.65.28-1.34.28-2.05,0-4.26-3.47-7.73-7.73-7.73s-7.73,3.47-7.73,7.73c0,2.26.98,4.29,2.54,5.71l-6.79,10.62c-1.67-.84-3.54-1.32-5.53-1.32-6.83,0-12.38,5.55-12.38,12.38s5.55,12.38,12.38,12.38c.2,0,.39-.02.59-.03l3.4,22.05c-3.07,1.03-5.28,3.92-5.28,7.32,0,4.26,3.47,7.73,7.73,7.73,4.01,0,7.31-3.07,7.69-6.98l30.72-2.22c.99,5.23,5.59,9.2,11.1,9.2,6.23,0,11.3-5.07,11.3-11.3s-5.07-11.3-11.3-11.3ZM75.8,70.01c-1.96.48-3.71,1.47-5.12,2.82l-8.77-7.97c.99-1.46,1.57-3.22,1.57-5.12,0-2.84-1.31-5.39-3.35-7.06l7.31-12.08c1.42.65,2.98,1.02,4.64,1.02.04,0,.07,0,.11,0l3.61,28.39ZM67.22,80.49l-30.73,2.22c-.23-.93-.62-1.79-1.15-2.55l13.45-13.16c1.54,1.18,3.46,1.89,5.55,1.89,2.21,0,4.24-.79,5.82-2.1l8.86,8.05c-1.06,1.64-1.71,3.57-1.8,5.64ZM54.34,53.22c3.6,0,6.54,2.93,6.54,6.54s-2.93,6.54-6.54,6.54-6.54-2.93-6.54-6.54,2.93-6.54,6.54-6.54ZM72.08,21.83c4.74,0,8.6,3.86,8.6,8.6s-3.86,8.6-8.6,8.6-8.6-3.86-8.6-8.6,3.86-8.6,8.6-8.6ZM61.46,26.89c-.37,1.11-.58,2.3-.58,3.54,0,3.59,1.7,6.78,4.34,8.83l-7.31,12.08c-1.1-.47-2.3-.73-3.57-.73-.52,0-1.03.05-1.53.14l-9.16-28.47c1.11-.58,2.06-1.42,2.77-2.44l15.04,7.04ZM40.07,10.32c2.83,0,5.13,2.3,5.13,5.13s-2.3,5.13-5.13,5.13-5.13-2.3-5.13-5.13,2.3-5.13,5.13-5.13ZM37.07,22.56c.92.39,1.94.61,3.01.61.37,0,.74-.04,1.09-.09l9.16,28.47c-1.33.65-2.48,1.62-3.35,2.81l-12.94-6.89c.58-1.43.91-3,.91-4.64,0-3.91-1.82-7.39-4.66-9.66l6.78-10.61ZM12.79,42.83c0-5.39,4.39-9.78,9.78-9.78s9.78,4.39,9.78,9.78-4.39,9.78-9.78,9.78-9.78-4.39-9.78-9.78ZM32.82,49.77l12.93,6.89c-.35.97-.55,2.01-.55,3.1,0,2.02.66,3.88,1.77,5.39l-13.45,13.16c-1.24-.9-2.76-1.44-4.4-1.47l-3.4-22.05c2.93-.77,5.44-2.58,7.09-5.02ZM29,89.68c-2.83,0-5.13-2.3-5.13-5.13s2.3-5.12,5.13-5.12,5.13,2.3,5.13,5.12-2.3,5.13-5.13,5.13ZM78.5,89.68c-4.8,0-8.71-3.91-8.71-8.71s3.91-8.7,8.71-8.7,8.7,3.9,8.7,8.7-3.9,8.71-8.7,8.71Z"/>
</svg>