<?xml version="1.0" encoding="UTF-8"?>
<svg id="Layer_1" xmlns="http://www.w3.org/2000/svg" xmlns:xlink="http://www.w3.org/1999/xlink" version="1.1" viewBox="0 0 100 100">
  <!-- Generator: Adobe Illustrator 30.1.0, SVG Export Plug-In . SVG Version: 2.1.1 Build 136)  -->
  <defs>
    <style>
      .st0 {
        fill: url(#linear-gradient);
      }
    </style>
    <linearGradient id="linear-gradient" x1="50.04" y1="92.14" x2="49.39" y2="6.4" gradientUnits="userSpaceOnUse">
      <stop offset="0" stop-color="#22a070"/>
      <stop offset="1" stop-color="#b7db57"/>
    </linearGradient>
  </defs>
  <path class="st0" d="M84.4,68.85c3.08-1.86,5.16-5.23,5.16-9.09,0-5.42-4.08-9.89-9.32-10.53v-31.9h-28.1v24.3c-.7-.12-1.41-.2-2.14-.2-.57,0-1.12.05-1.67.13V7.72l-28.56,11.8v29.71c-5.24.64-9.32,5.12-9.32,10.53,0,3.86,2.07,7.23,5.16,9.09-5.26,1.82-9.05,6.81-9.05,12.68v10.75h86.9v-10.75c0-5.87-3.79-10.86-9.05-12.68ZM86.96,59.76c0,4.42-3.6,8.02-8.02,8.02s-8.02-3.6-8.02-8.02,3.6-8.02,8.02-8.02,8.02,3.6,8.02,8.02ZM54.74,19.92h22.9v29.3c-5.24.64-9.32,5.12-9.32,10.53,0,3.86,2.07,7.23,5.16,9.09-3.07,1.06-5.64,3.21-7.24,5.98-1.59-4.83-5.44-8.63-10.3-10.13,3.85-2.11,6.46-6.19,6.46-10.88,0-5.15-3.17-9.58-7.65-11.45v-22.45ZM59.79,53.82c0,5.4-4.39,9.79-9.79,9.79s-9.79-4.39-9.79-9.79,4.39-9.79,9.79-9.79,9.79,4.39,9.79,9.79ZM45.73,11.61v30.6c-4.73,1.75-8.12,6.29-8.12,11.62,0,4.69,2.62,8.77,6.46,10.88-4.86,1.5-8.72,5.31-10.3,10.13-1.61-2.77-4.17-4.92-7.24-5.98,3.08-1.86,5.16-5.23,5.16-9.09,0-5.42-4.08-9.89-9.32-10.53v-27.97l23.37-9.65ZM13.04,59.76c0-4.42,3.6-8.02,8.02-8.02s8.02,3.6,8.02,8.02-3.6,8.02-8.02,8.02-8.02-3.6-8.02-8.02ZM32.97,89.68H9.15v-8.15c0-5.97,4.86-10.83,10.82-10.83h2.18c5.97,0,10.82,4.86,10.82,10.83v8.15ZM64.43,89.68h-28.85v-9.95c0-7.24,5.89-13.13,13.13-13.13h2.59c7.24,0,13.13,5.89,13.13,13.13v9.95ZM90.85,89.68h-23.83v-8.15c0-5.97,4.86-10.83,10.82-10.83h2.18c5.97,0,10.82,4.86,10.82,10.83v8.15Z"/>
</svg>