<?xml version="1.0" encoding="UTF-8"?>
<svg id="Layer_1" xmlns="http://www.w3.org/2000/svg" xmlns:xlink="http://www.w3.org/1999/xlink" version="1.1" viewBox="0 0 100 100">
  <!-- Generator: Adobe Illustrator 30.1.0, SVG Export Plug-In . SVG Version: 2.1.1 Build 136)  -->
  <defs>
    <style>
      .st0 {
        fill: url(#linear-gradient1);
      }

      .st1 {
        fill: url(#linear-gradient);
      }
    </style>
    <linearGradient id="linear-gradient" x1="39.81" y1="92.28" x2="39.81" y2="9.75" gradientUnits="userSpaceOnUse">
      <stop offset="0" stop-color="#22a070"/>
      <stop offset="1" stop-color="#b7db57"/>
    </linearGradient>
    <linearGradient id="linear-gradient1" x1="81.31" y1="93.53" x2="81.31" y2="8.99" xlink:href="#linear-gradient"/>
  </defs>
  <path class="st1" d="M63.25,63.04c-4.81-2.09-9.88-3.42-15.08-3.97v-4.37c3.92-2.26,6.84-6.04,7.96-10.54h.93c3.11,0,5.64-2.53,5.64-5.64v-6.11c4.31-2.69,5.46-5.5,5.55-5.72l.67-1.76h-9.78l-3.14-9.37c-1.57-4.69-5.96-7.85-10.91-7.85h-10.66c-5,0-9.39,3.19-10.94,7.94l-3.02,9.27h-9.77l.67,1.76c.08.22,1.18,2.9,5.24,5.53h-.02v6.3c0,3.11,2.53,5.64,5.64,5.64h1.26c1.12,4.5,4.04,8.28,7.96,10.54v4.39c-4.9.54-9.67,1.77-14.22,3.69l-.71.3c-5.26,2.21-8.66,7.33-8.66,13.04v16.16h63.87v-16.27c0-5.63-3.33-10.72-8.5-12.97ZM39.81,67.51c3.74,0,6.91-2.47,7.97-5.86,1.14.12,2.27.27,3.4.47v15.32h-22.75v-15.26c1.13-.2,2.27-.37,3.41-.49,1.07,3.38,4.24,5.83,7.96,5.83ZM53.79,80.03v-17.38c1.68.39,3.34.86,4.98,1.43v25.6H20.86v-25.5c1.63-.58,3.29-1.07,4.98-1.47v17.32h27.95ZM60.1,38.53c0,1.68-1.36,3.04-3.04,3.04h-.49c.04-.48.07-.96.07-1.46v-4.94c1.28-.42,2.43-.87,3.46-1.35v4.71ZM25.96,16.46c1.2-3.68,4.6-6.15,8.47-6.15h10.66c3.83,0,7.23,2.44,8.44,6.07l2.87,8.54H23.2l2.76-8.47ZM15.05,27.53h49.52c-2.4,2.65-8.88,7.33-24.76,7.33s-22.36-4.68-24.76-7.33ZM22.23,41.57c-1.68,0-3.04-1.36-3.04-3.04v-4.86c1.1.53,2.36,1.04,3.78,1.51v4.94c0,.49.03.97.07,1.46h-.82ZM25.58,40.12v-4.2c3.73.93,8.39,1.54,14.24,1.54s10.51-.61,14.23-1.54v4.2c0,7.85-6.39,14.24-14.23,14.24s-14.24-6.39-14.24-14.24ZM39.81,56.95c2.02,0,3.96-.38,5.76-1.04v3.24c0,3.17-2.58,5.76-5.76,5.76s-5.76-2.58-5.76-5.76v-3.24c1.8.66,3.73,1.04,5.76,1.04ZM10.47,76.12c0-4.66,2.77-8.83,7.07-10.64l.71-.3s0,0,.01,0v24.5h-7.79v-13.56ZM69.15,89.68h-7.79v-24.61c.28.12.57.23.85.35,4.21,1.83,6.93,5.99,6.93,10.58v13.67Z"/>
  <path class="st0" d="M89.53,37.55v13.13c0,2.02-1.65,3.67-3.67,3.67h-3.24v-16.8h-2.6v16.8h-3.24c-2.02,0-3.67-1.65-3.67-3.67v-13.13h-2.6v13.13c0,3.46,2.81,6.27,6.27,6.27h3.24v35.33h2.6v-35.33h3.24c3.46,0,6.27-2.81,6.27-6.27v-13.13h-2.6Z"/>
</svg>