<?xml version="1.0" encoding="UTF-8"?>
<svg id="Layer_1" xmlns="http://www.w3.org/2000/svg" xmlns:xlink="http://www.w3.org/1999/xlink" version="1.1" viewBox="0 0 100 100">
  <!-- Generator: Adobe Illustrator 30.1.0, SVG Export Plug-In . SVG Version: 2.1.1 Build 136)  -->
  <defs>
    <style>
      .st0 {
        fill: url(#linear-gradient);
      }
    </style>
    <linearGradient id="linear-gradient" x1="48.87" y1="94.47" x2="51.06" y2="8.28" gradientUnits="userSpaceOnUse">
      <stop offset="0" stop-color="#22a070"/>
      <stop offset="1" stop-color="#b7db57"/>
    </linearGradient>
  </defs>
  <path class="st0" d="M82.09,50c0-2.42-.28-4.77-.79-7.03,10.69-15.39,13.98-27.64,8.77-32.83-5.32-5.3-18.07-1.61-33.04,8.71-2.26-.51-4.62-.78-7.03-.78s-4.8.28-7.07.79C27.46,8.22,15.15,4.95,9.93,10.14c-5.33,5.3-1.63,17.98,8.76,32.87-.51,2.25-.78,4.59-.78,6.99s.28,4.74.79,6.99c-10.38,14.89-14.08,27.57-8.76,32.87,1.63,1.63,3.96,2.42,6.87,2.42,6.37,0,15.51-3.83,26.13-11.14,2.28.51,4.64.79,7.07.79s4.75-.27,7.01-.78c11.22,7.79,20.11,11.07,26.15,11.07,3.06,0,5.39-.84,6.91-2.36,5.21-5.19,1.93-17.44-8.77-32.83.51-2.26.79-4.62.79-7.03ZM88.22,11.97c3.95,3.93.86,14.69-7.85,27.75-3.2-9.33-10.62-16.72-19.99-19.92,12.8-8.41,23.8-11.85,27.84-7.83ZM54.08,20.94c-4.16,3.05-8.46,6.59-12.79,10.57-1.16-.83-2.58-1.33-4.12-1.33-3.91,0-7.09,3.16-7.09,7.05,0,1.53.5,2.95,1.33,4.1-2.04,2.21-3.97,4.4-5.78,6.58-1.46-1.86-2.84-3.7-4.12-5.51,3.37-12.51,14.86-21.75,28.49-21.75,1.39,0,2.75.1,4.09.29ZM32.68,37.24c0-2.46,2.01-4.47,4.49-4.47s4.49,2,4.49,4.47-2.01,4.47-4.49,4.47-4.49-2-4.49-4.47ZM11.77,11.97c3.96-3.93,14.76-.86,27.89,7.81-9.38,3.18-16.81,10.57-20.02,19.89C11.17,26.93,7.72,16,11.77,11.97ZM20.5,50c0-1.38.1-2.73.29-4.06.99,1.34,2.04,2.69,3.14,4.06-1.09,1.37-2.14,2.72-3.14,4.06-.19-1.33-.29-2.68-.29-4.06ZM11.77,88.03c-4.04-4.02-.59-14.97,7.87-27.7,3.21,9.32,10.65,16.71,20.02,19.89-13.13,8.66-23.94,11.74-27.89,7.81ZM50,79.34c-13.62,0-25.11-9.24-28.48-21.74,1.28-1.82,2.66-3.66,4.12-5.51,1.85,2.22,3.83,4.47,5.93,6.73-.92,1.19-1.48,2.68-1.48,4.29,0,3.89,3.18,7.05,7.09,7.05s7.09-3.16,7.09-7.05-3.18-7.05-7.09-7.05c-1.35,0-2.6.38-3.68,1.03-2.19-2.36-4.26-4.73-6.19-7.09,1.87-2.28,3.87-4.58,5.98-6.87,1.12.73,2.45,1.16,3.88,1.16,3.91,0,7.09-3.16,7.09-7.05,0-1.42-.43-2.75-1.16-3.86,4.87-4.46,9.8-8.41,14.54-11.72,12.57,3.36,21.85,14.79,21.85,28.34s-9.3,25-21.88,28.35c-3.34-2.34-6.79-5-10.25-7.95l-1.69,1.96c2.93,2.49,5.73,4.71,8.41,6.69-1.34.19-2.7.29-4.08.29ZM37.17,58.64c2.48,0,4.49,2,4.49,4.47s-2.01,4.47-4.49,4.47-4.49-2-4.49-4.47,2.01-4.47,4.49-4.47ZM88.22,88.03c-4.01,3.98-14.99.64-27.87-7.82,9.38-3.19,16.81-10.59,20.02-19.93,8.71,13.06,11.8,23.82,7.85,27.75Z"/>
</svg>