<?xml version="1.0" encoding="UTF-8"?>
<svg id="Layer_1" xmlns="http://www.w3.org/2000/svg" xmlns:xlink="http://www.w3.org/1999/xlink" version="1.1" viewBox="0 0 100 100">
  <!-- Generator: Adobe Illustrator 30.1.0, SVG Export Plug-In . SVG Version: 2.1.1 Build 136)  -->
  <defs>
    <style>
      .st0 {
        fill: url(#linear-gradient1);
      }

      .st1 {
        fill: url(#linear-gradient);
      }
    </style>
    <linearGradient id="linear-gradient" x1="50" y1="98.8" x2="50" y2="22.22" gradientUnits="userSpaceOnUse">
      <stop offset="0" stop-color="#22a070"/>
      <stop offset="1" stop-color="#b7db57"/>
    </linearGradient>
    <linearGradient id="linear-gradient1" x1="50.47" x2="50.47" y2="22.22" xlink:href="#linear-gradient"/>
  </defs>
  <path class="st1" d="M81.7,60v-20.12c3.17-.96,5.48-3.91,5.48-7.39,0-4.26-3.47-7.73-7.73-7.73-2.29,0-4.34,1-5.75,2.59l-15.99-9.23c.31-.84.49-1.73.49-2.68,0-4.26-3.47-7.73-7.73-7.73s-7.73,3.47-7.73,7.73c0,.94.18,1.84.49,2.68l-16.62,9.6c-1.42-1.8-3.6-2.95-6.06-2.95-4.26,0-7.73,3.47-7.73,7.73,0,3.82,2.78,6.99,6.43,7.61v19.69c-3.64.62-6.43,3.79-6.43,7.61,0,4.26,3.47,7.73,7.73,7.73,2.42,0,4.58-1.12,6-2.87l16.69,9.63c-.31.84-.49,1.73-.49,2.68,0,4.26,3.47,7.73,7.73,7.73s7.73-3.47,7.73-7.73c0-.94-.18-1.84-.49-2.68l16.06-9.27c1.41,1.54,3.43,2.51,5.68,2.51,4.26,0,7.73-3.47,7.73-7.73,0-3.48-2.31-6.43-5.48-7.39ZM84.58,32.49c0,2.83-2.3,5.12-5.13,5.12s-5.13-2.3-5.13-5.12c0-.31.04-.61.09-.91.02-.09.04-.19.06-.28.05-.21.12-.42.19-.62.03-.09.06-.17.1-.26.12-.27.26-.53.42-.78l.02-.04c.92-1.36,2.48-2.25,4.24-2.25,2.83,0,5.13,2.3,5.13,5.13ZM50.47,10.32c2.83,0,5.13,2.3,5.13,5.13,0,1-.3,1.93-.8,2.72-.06.09-.11.18-.17.26-.13.19-.28.36-.44.53-.06.06-.12.13-.18.19-.17.17-.36.32-.55.46-.09.06-.17.12-.26.18-.18.12-.38.22-.58.31-.07.03-.14.07-.21.1-.25.1-.51.18-.77.24-.08.02-.17.04-.25.05-.29.05-.59.09-.9.09s-.61-.04-.9-.09c-.08-.02-.17-.03-.25-.05-.27-.06-.52-.14-.77-.24-.07-.03-.14-.07-.21-.1-.2-.09-.39-.2-.58-.31-.09-.06-.18-.11-.27-.18-.19-.14-.38-.29-.55-.45-.07-.06-.13-.13-.19-.19-.16-.16-.3-.34-.43-.52-.06-.09-.12-.17-.18-.27-.5-.79-.8-1.72-.8-2.72,0-2.83,2.3-5.13,5.13-5.13ZM15.42,32.49c0-2.83,2.3-5.13,5.13-5.13,2.09,0,3.88,1.26,4.68,3.05.02.04.04.09.06.13.11.27.2.56.27.86.01.05.02.1.03.15.06.31.1.62.1.94,0,2.83-2.3,5.12-5.13,5.12s-5.13-2.3-5.13-5.12ZM20.54,72.52c-2.83,0-5.13-2.3-5.13-5.13s2.3-5.13,5.13-5.13,5.13,2.3,5.13,5.13c0,.31-.04.61-.09.91-.01.07-.03.15-.04.22-.06.28-.15.56-.25.82-.02.05-.05.1-.07.16-.81,1.78-2.59,3.02-4.66,3.02ZM50.47,89.68c-2.83,0-5.13-2.3-5.13-5.13,0-1,.3-1.93.8-2.72.06-.09.12-.18.18-.26.13-.18.28-.36.43-.52.06-.07.12-.13.19-.19.17-.16.36-.31.55-.45.09-.06.18-.12.27-.18.18-.12.38-.22.57-.31.07-.03.14-.07.22-.1.25-.1.51-.18.77-.24.08-.02.17-.04.25-.05.29-.05.59-.09.9-.09s.61.04.9.09c.08.02.17.03.25.05.26.06.52.14.77.24.07.03.14.07.22.1.2.09.39.2.58.31.09.06.18.11.26.18.19.14.38.29.55.46.06.06.12.12.18.19.16.17.3.34.44.53.06.08.12.17.17.26.5.79.8,1.72.8,2.72,0,2.83-2.3,5.13-5.13,5.13ZM72.35,70.42l-15.94,9.2c-.18-.21-.37-.41-.57-.61-.02-.02-.04-.04-.07-.06-.18-.17-.36-.33-.55-.48-.03-.03-.07-.05-.11-.08-.18-.14-.37-.27-.57-.39-.04-.02-.08-.05-.12-.07-.2-.12-.4-.23-.61-.33-.04-.02-.08-.04-.12-.06-.21-.1-.43-.19-.65-.26-.04-.01-.08-.03-.12-.04-.22-.07-.44-.14-.67-.19-.05-.01-.09-.03-.14-.04-.22-.05-.45-.09-.67-.11-.05,0-.1-.02-.15-.02-.27-.03-.55-.05-.83-.05s-.56.02-.84.05c-.05,0-.1.02-.15.02-.23.03-.45.07-.67.11-.05.01-.09.02-.14.04-.23.05-.45.12-.67.19-.04.01-.08.03-.12.04-.22.08-.44.17-.65.27-.04.02-.07.04-.11.05-.21.1-.42.21-.62.33-.04.02-.07.04-.11.07-.2.12-.39.26-.58.4-.03.02-.07.05-.1.07-.2.15-.38.32-.56.49-.02.02-.04.03-.06.05-.2.19-.39.39-.57.61l-16.71-9.65s.03-.09.04-.13c.04-.11.07-.23.11-.34.03-.12.06-.23.09-.35.03-.11.05-.22.07-.34.03-.14.05-.28.06-.42.01-.1.03-.19.04-.29.02-.24.04-.48.04-.72s-.01-.5-.04-.75c0-.08-.02-.16-.03-.24-.02-.16-.04-.33-.08-.49-.02-.09-.04-.18-.06-.28-.03-.15-.07-.29-.11-.43-.03-.09-.06-.19-.09-.28-.05-.14-.09-.27-.15-.4-.04-.09-.08-.18-.12-.27-.06-.13-.12-.25-.18-.38-.05-.09-.09-.17-.14-.26-.07-.12-.14-.24-.22-.36-.05-.08-.1-.16-.16-.24-.08-.12-.18-.24-.27-.36-.05-.07-.11-.14-.16-.21-.11-.13-.23-.26-.35-.38-.04-.05-.08-.09-.13-.14-.17-.17-.34-.32-.52-.48-.04-.03-.08-.06-.11-.09-.15-.12-.29-.23-.45-.34-.07-.05-.14-.09-.22-.14-.13-.08-.26-.16-.39-.24-.08-.05-.17-.09-.25-.13-.13-.06-.25-.13-.38-.19-.09-.04-.19-.08-.28-.12-.13-.05-.26-.1-.39-.14-.1-.03-.2-.06-.29-.09-.14-.04-.27-.07-.41-.11-.1-.02-.2-.05-.3-.06-.05,0-.09-.02-.14-.03v-19.67s.09-.02.14-.03c.1-.02.2-.04.3-.06.14-.03.27-.07.41-.11.1-.03.2-.06.3-.09.13-.04.26-.09.39-.14.1-.04.19-.08.28-.12.13-.06.25-.12.38-.18.09-.04.18-.09.26-.14.13-.07.25-.15.37-.23.08-.05.15-.09.23-.15.14-.1.28-.21.42-.31.05-.04.1-.07.14-.11.18-.15.35-.31.52-.47.05-.05.1-.11.15-.16.11-.12.22-.24.33-.36.06-.07.11-.15.17-.22.09-.11.18-.23.26-.34.06-.08.11-.17.16-.25.07-.12.15-.23.22-.35.05-.09.1-.18.14-.27.06-.12.12-.25.18-.37.04-.09.08-.19.12-.28.05-.13.1-.26.15-.4.03-.09.06-.19.09-.29.04-.14.08-.28.11-.43.02-.09.05-.19.06-.28.03-.16.05-.32.07-.49.01-.08.03-.16.03-.24.02-.25.04-.5.04-.75,0-.39-.04-.77-.09-1.14-.01-.07-.02-.14-.03-.2-.07-.37-.15-.73-.27-1.08,0-.02,0-.04-.02-.06l16.67-9.63c.18.21.37.42.57.61.02.02.04.03.06.05.18.17.37.33.56.48.03.03.07.05.1.08.19.14.38.27.58.4.04.02.07.05.11.07.2.12.4.23.61.33.04.02.08.04.11.06.21.1.43.19.65.27.04.01.08.03.12.04.22.07.44.14.67.19.05.01.09.02.13.03.22.05.45.09.68.11.05,0,.1.02.15.02.27.03.55.05.84.05s.56-.02.83-.05c.05,0,.1-.02.15-.02.23-.03.45-.07.67-.11.05-.01.09-.02.14-.04.23-.05.45-.12.67-.19.04-.01.08-.03.12-.04.22-.08.44-.17.65-.26.04-.02.08-.04.12-.06.21-.1.41-.21.61-.33.04-.02.08-.05.12-.07.2-.12.38-.25.57-.39.04-.03.07-.05.11-.08.19-.15.37-.31.55-.47.02-.02.05-.04.07-.06.2-.19.39-.39.57-.61l15.9,9.18s0,.02-.01.03c-.09.22-.17.44-.24.66-.01.04-.02.08-.03.12-.06.2-.11.4-.15.6-.02.09-.03.18-.04.27-.03.16-.06.32-.07.48-.03.25-.04.51-.04.77s.01.52.04.78c0,.09.03.17.04.26.02.17.04.34.08.5.02.1.05.2.07.29.04.15.07.29.11.44.03.1.07.2.11.3.05.13.09.27.15.4.04.1.09.2.14.3.06.12.11.25.18.37.05.1.11.2.17.29.07.11.13.23.21.34.06.1.13.19.2.28.08.1.15.21.23.31.07.09.15.18.23.26.08.1.17.19.26.28.08.08.17.16.25.24.09.09.18.17.28.26.09.08.18.15.28.22.1.08.2.15.3.23.1.07.2.13.3.19.11.07.21.14.32.2.1.06.21.11.31.16.11.06.23.11.35.17.11.05.22.09.33.13.12.05.24.09.37.13.11.04.23.07.34.1.13.04.26.07.39.1.11.03.23.05.35.07.13.02.27.05.4.06.12.01.24.02.35.03.08,0,.15.02.23.02v19.46c-.08,0-.15.02-.23.02-.12,0-.24.02-.35.03-.14.02-.27.04-.4.06-.12.02-.23.04-.35.07-.13.03-.26.06-.39.1-.11.03-.23.06-.34.1-.12.04-.25.09-.37.13-.11.04-.22.09-.33.13-.12.05-.23.11-.35.17-.11.05-.21.11-.31.16-.11.06-.22.13-.33.2-.1.06-.2.12-.3.19-.1.07-.2.15-.3.23-.09.07-.19.14-.28.22-.1.08-.19.17-.28.26-.09.08-.17.16-.25.24-.09.09-.17.19-.26.28-.08.09-.16.17-.23.26-.08.1-.16.21-.23.31-.07.09-.14.18-.2.28-.07.11-.14.22-.2.34-.06.1-.12.19-.17.29-.06.12-.12.24-.18.36-.05.1-.1.2-.14.3-.05.13-.1.26-.14.4-.04.1-.08.2-.11.31-.04.14-.08.29-.11.43-.02.1-.05.2-.07.3-.03.16-.05.33-.08.5-.01.09-.03.17-.04.26-.03.26-.04.52-.04.78s.01.53.04.78c.05.52.16,1.03.31,1.52.01.04.03.07.04.11.07.21.14.41.23.61,0,0,0,0,0,.01ZM79.46,72.52c-1.76,0-3.32-.9-4.24-2.26h0c-.17-.26-.31-.53-.43-.8-.03-.08-.06-.16-.09-.24-.08-.21-.15-.42-.2-.64-.02-.09-.04-.18-.06-.27-.05-.3-.09-.6-.09-.92,0-2.83,2.3-5.13,5.13-5.13.35,0,.68.04,1.01.1h.03c2.33.49,4.09,2.55,4.09,5.02,0,2.83-2.3,5.13-5.13,5.13Z"/>
  <path class="st0" d="M62.08,53.25c0-10-8.14-18.14-18.14-18.14h-7.39v7.39c0,10,8.14,18.14,18.14,18.14h5.25c.82,1.93,1.47,4.24,1.86,7.13l2.58-.35c-.47-3.42-1.28-6.15-2.3-8.39v-5.78ZM54.69,58.04c-8.57,0-15.54-6.97-15.54-15.54v-4.79h4.79c8.57,0,15.54,6.97,15.54,15.54v1.5c-2-2.52-4.27-4.14-6.32-5.58-1.08-.76-2.1-1.49-2.99-2.27l-1.73,1.94c.99.88,2.07,1.65,3.22,2.46,2.38,1.68,4.94,3.5,6.94,6.74h-3.92Z"/>
</svg>