<?xml version="1.0" encoding="UTF-8"?>
<svg id="Layer_1" xmlns="http://www.w3.org/2000/svg" xmlns:xlink="http://www.w3.org/1999/xlink" version="1.1" viewBox="0 0 100 100">
  <!-- Generator: Adobe Illustrator 30.1.0, SVG Export Plug-In . SVG Version: 2.1.1 Build 136)  -->
  <defs>
    <style>
      .st0 {
        fill: url(#linear-gradient);
      }
    </style>
    <linearGradient id="linear-gradient" x1="49.62" y1="92.97" x2="50.28" y2="6.5" gradientUnits="userSpaceOnUse">
      <stop offset="0" stop-color="#22a070"/>
      <stop offset="1" stop-color="#b7db57"/>
    </linearGradient>
  </defs>
  <path class="st0" d="M79.19,40.56c5.05-6.45,8.03-12.4,8.67-17.29,3.55-.75,6.22-3.9,6.22-7.67,0-4.33-3.52-7.85-7.85-7.85-2.98,0-5.58,1.67-6.91,4.13-3.27-.49-7.32-.05-11.83,1.19-4.63-3.29-10.29-5.24-16.4-5.24-6.98,0-13.38,2.54-18.33,6.74-7.43-2.84-13.74-3.11-17.29.54-3.73,3.84-3.21,11.13,1.44,20.57-1.11,1.01-1.81,2.46-1.81,4.08,0,3.05,2.48,5.53,5.53,5.53.04,0,.08,0,.11,0-5.18,6.44-8.54,12.71-9.3,17.82-3.19.99-5.52,3.98-5.52,7.49,0,4.33,3.52,7.85,7.85,7.85,2.77,0,5.21-1.45,6.6-3.62.77.09,1.56.16,2.4.16,3.55,0,7.78-.84,12.47-2.46.29.55.67,1.04,1.13,1.44-1.06.94-1.75,2.3-1.75,3.82,0,2.82,2.3,5.12,5.12,5.12h.37c.86,5.29,5.45,9.34,10.98,9.34s10.12-4.05,10.98-9.34h.37c.5,0,.98-.09,1.44-.23,6.3,3.25,11.72,4.89,15.97,4.89,3.14,0,5.65-.9,7.4-2.7,3.8-3.91,3.19-11.35-1.65-21,1.19-1.1,1.94-2.66,1.94-4.4,0-3.31-2.69-6-6-6-.71,0-1.39.13-2.03.36-1.03-1.46-2.12-2.93-3.27-4.4,1.44-2.75,2.43-5.75,2.9-8.9l.04.03ZM86.23,10.35c2.89,0,5.25,2.35,5.25,5.25s-2.35,5.25-5.25,5.25-5.25-2.35-5.25-5.25,2.35-5.25,5.25-5.25ZM78.49,14.4c-.06.39-.1.79-.1,1.2,0,3.98,2.98,7.27,6.82,7.77-.57,3.52-2.56,7.81-5.74,12.43-.12-8.22-3.75-15.61-9.47-20.72,3.19-.73,6.07-.97,8.49-.68ZM51.09,10.44c4.81,0,9.31,1.33,13.17,3.63-5.34,1.83-11.17,4.64-17.04,8.27-4.01-2.68-7.98-4.94-11.73-6.62,4.34-3.31,9.74-5.28,15.61-5.28ZM62.39,59.39l-.73.36v4.32h-6.17v-16.73l3.02-3.83-2.04-1.61-3.58,4.53v17.63h-3.58v-17.63l-3.58-4.53-2.04,1.61,3.02,3.83v16.73h-6.39v-4.42l-.72-.36c-6.75-3.37-11.52-9.35-13.4-16.37,3.89-4.22,8.52-8.45,13.7-12.39,2.42-1.84,4.88-3.54,7.33-5.12,4.96,3.44,10.2,7.74,15.51,12.89,3.76,3.65,7.27,7.5,10.39,11.36-2.51,4.11-6.18,7.51-10.73,9.73ZM38.32,28.45c-4.73,3.6-9.04,7.46-12.76,11.36-.16-1.18-.25-2.38-.25-3.59,0-7.32,3.07-13.93,7.98-18.63,3.53,1.45,7.43,3.54,11.58,6.24-2.2,1.44-4.39,2.97-6.56,4.62ZM17.34,16.93c2.29-2.36,7.05-2.46,13.29-.34-4.56,4.75-7.49,11.08-7.87,18.09-.67-.28-1.39-.44-2.12-.44-.5,0-.98.07-1.44.2-4.02-8.22-4.71-14.56-1.85-17.5ZM17.7,39.77c0-1.62,1.31-2.93,2.93-2.93.83,0,1.58.35,2.13.95.07,1.26.22,2.5.45,3.72l-.15-.1c-.55.81-1.46,1.29-2.43,1.29-1.62,0-2.93-1.32-2.93-2.93ZM13.77,75.85c-2.89,0-5.25-2.35-5.25-5.25s2.35-5.25,5.25-5.25,5.25,2.35,5.25,5.25-2.35,5.25-5.25,5.25ZM34.64,69.98c-5.17,1.82-9.7,2.62-13.23,2.35.13-.56.2-1.14.2-1.73,0-4.2-3.32-7.63-7.47-7.83.97-5.02,4.58-11.22,10.02-17.58,2.25,6.79,7.01,12.55,13.55,16.04v4.21c-1.76.77-3,2.5-3.07,4.53ZM37.23,70.15c0-1.39,1.13-2.52,2.52-2.52h22.69c1.39,0,2.52,1.13,2.52,2.52s-1.13,2.52-2.52,2.52h-22.69c-1.39,0-2.52-1.13-2.52-2.52ZM51.09,89.65c-4.09,0-7.52-2.89-8.34-6.74h16.69c-.83,3.85-4.25,6.74-8.34,6.74ZM39.75,80.31c-1.39,0-2.52-1.13-2.52-2.52s1.13-2.52,2.52-2.52h22.69c1.39,0,2.52,1.13,2.52,2.52s-1.13,2.52-2.52,2.52h-22.69ZM84.93,59.47c0,1.87-1.52,3.4-3.4,3.4s-3.4-1.52-3.4-3.4,1.52-3.4,3.4-3.4,3.4,1.52,3.4,3.4ZM77.31,55.22c-1.09,1.09-1.77,2.59-1.77,4.25,0,3.31,2.69,6,6,6,.63,0,1.24-.1,1.81-.28,4.19,8.4,4.95,14.89,2.04,17.88-3.02,3.1-10.05,2.32-19-2.04.73-.89,1.19-2,1.19-3.24,0-1.53-.68-2.88-1.75-3.82,1.06-.94,1.75-2.29,1.75-3.82,0-2.18-1.38-4.04-3.31-4.77v-4.01c4.38-2.29,7.96-5.59,10.56-9.54.87,1.14,1.7,2.27,2.49,3.4ZM74.44,47.18c-3.01-3.66-6.34-7.29-9.9-10.75-4.73-4.59-9.85-8.86-14.98-12.49,6.08-3.68,12.05-6.45,17.35-8.07,6.06,4.72,9.96,12.08,9.96,20.33,0,3.89-.86,7.61-2.43,10.97Z"/>
</svg>