<?xml version="1.0" encoding="UTF-8"?>
<svg width="603px" height="259px" viewBox="0 0 603 259" version="1.1" xmlns="http://www.w3.org/2000/svg" xmlns:xlink="http://www.w3.org/1999/xlink">
    <title>Untitled 2</title>
    <g id="Page-1" stroke="none" stroke-width="1" fill="none" fill-rule="evenodd">
        <g id="Group" transform="translate(301.1327, 129.3039) scale(-1, 1) rotate(-180) translate(-301.1327, -129.3039)translate(49.1327, 21.3039)" fill-rule="nonzero">
            <path d="M31.9824766,0.01055333 C30.1944302,0.01055333 29.5363579,0.591798273 30.4485934,1.85007992 C30.4485934,1.85007992 33.7818552,5.02338506 39.8396821,11.9820885 C48.2359725,21.6034782 44.9617997,34.4485044 44.9617997,34.4485044 L9.20223383e-13,214.845503 L65.4195116,214.845503 L74.8251701,175.238044 L137.969354,175.238044 L147.804014,214.845503 L233.928116,214.845503 C269.292421,214.845503 298.043625,211.241135 312.216867,189.111614 C322.820493,209.309064 345.646618,218.774589 385.924205,215.29199 C399.951749,214.090534 413.679801,207.514998 419.564409,197.026611 L422.348872,205.72905 C424.663862,211.005715 429.471918,214.861739 436.319756,214.861739 L502.118893,214.861739 C503.907749,214.861739 504.482449,214.325955 503.57588,213.075791 C503.57588,213.075791 500.046734,209.154823 494.218788,202.830943 C486.998609,195.045833 487.387139,186.797999 487.387139,186.797999 L487.387139,0.00405897306 L416.909455,0.00811794613 L416.909455,149.394563 C416.043358,163.544143 402.258645,167.132275 394.649936,166.880619 C383.714442,166.547783 377.352267,160.361908 377.352267,149.824814 L377.352267,4.54747351e-13 L308.712005,0.00405897306 C308.712005,0.00405897306 280.041745,0.0365307576 260.331953,0.0365307576 C222.757885,0.0365307576 187.304542,5.83923865 175.308685,37.2012999 L168.226111,9.42250007 C166.493916,3.9031085 160.568837,0.00405897306 154.676135,0.00405897306 L31.9816672,0.00405897306 L31.9824766,0.01055333 Z M106.426402,47.8942586 L128.281202,136.111979 L84.644451,136.111979 L106.426402,47.8942586 Z" id="Shape" fill="#004747" transform="translate(252, 108) scale(-1, 1) rotate(-180) translate(-252, -108)"></path>
            <path d="M310.388349,14.4003238 C310.05648,14.4376663 309.732705,14.613014 309.465591,14.9393554 L282.592281,48.2830073 C282.592281,48.2830073 269.098965,42.549302 256.382709,42.4478277 C244.532551,42.3504123 235.766348,44.4708198 230.942103,49.2027706 C228.149545,51.9515072 226.757313,55.4811902 226.757313,59.7301232 C226.757313,65.5279603 230.027439,70.3183603 237.012881,74.7588768 C243.277924,78.6798448 251.946994,82.0163207 261.158388,85.4989196 C273.146151,90.0774412 286.793259,95.2404549 297.971585,102.96874 C319.365006,117.759637 321.040541,136.32538 321.040541,136.32538 L362.354208,145.669136 C363.875949,146.01009 364.572065,143.83448 363.139362,143.209399 L322.764642,125.528512 C322.408489,125.374271 322.546094,124.830369 322.934623,124.846604 L367.769341,127.736593 C369.339649,127.834009 369.687707,125.569102 368.165966,125.17944 L325.071537,114.11468 C324.683007,114.017264 324.723479,113.457126 325.120103,113.416536 L369.8415,109.227676 C371.395619,109.089671 371.395619,106.824764 369.8415,106.678641 L325.120103,102.489781 C324.723479,102.457309 324.691102,101.913407 325.071537,101.807873 L368.165966,90.7268769 C369.679613,90.3372154 369.339649,88.0723085 367.769341,88.1778418 L322.934623,91.0597126 C322.546094,91.0840665 322.408489,90.5564 322.764642,90.3940411 L363.139362,72.6969185 C364.572065,72.0718367 363.875949,69.8962271 362.354208,70.2452988 L318.555569,80.1491931 C318.175134,80.2384905 317.956586,79.7270599 318.288455,79.5159933 L354.526951,55.8456859 C355.862523,54.9713831 354.80216,52.9183546 353.32089,53.5150236 L312.152922,70.0991757 C311.79677,70.2452988 311.489184,69.76634 311.772487,69.4984477 L342.854869,40.5774529 C344.044742,39.466106 342.636321,37.5754364 341.244089,38.4205146 L303.904758,61.205154 C303.572889,61.4056672 303.216737,60.9924638 303.443379,60.6815464 L328.535928,27.2429146 C329.523441,25.9269955 327.783151,24.3050299 326.544713,25.3879639 L294.070098,53.7374553 C293.778701,53.9899235 293.357794,53.6562759 293.53587,53.3088278 L311.804864,16.4298103 C312.363376,15.304663 311.367768,14.2866725 310.388349,14.4003238 L310.388349,14.4003238 Z M160.747722,38.2143187 C159.824964,38.4383741 159.242169,39.7023383 160.13255,40.529557 L172.419804,51.9612487 C172.695013,50.1265929 173.164486,47.5239794 173.553016,45.5870374 L161.74333,38.3888546 C161.403366,38.177788 161.055308,38.1404454 160.747722,38.2143187 Z M148.670921,53.4833636 C147.812918,53.8511066 147.472955,55.1613431 148.468562,55.814026 L172.22554,71.3331036 C171.942237,68.6355101 171.820821,65.0611784 171.828915,62.4098572 L149.666529,53.4833636 C149.302282,53.335617 148.954224,53.3607826 148.670921,53.4833636 Z M140.689872,70.2452988 C139.160036,69.8962271 138.46392,72.0718367 139.896624,72.6969185 L177.316899,89.0951697 C175.665647,85.8561092 174.160094,81.5617157 173.302091,77.6326298 L140.689872,70.2452988 L140.689872,70.2452988 Z M135.218078,88.1778418 C133.663959,88.0804264 133.291618,90.3209795 134.805265,90.710641 L178.061581,101.824109 C178.425827,101.921525 178.385355,102.449191 178.013014,102.489781 L133.12973,106.678641 C131.5918,106.824764 131.5918,109.081553 133.12973,109.227676 L177.915882,113.416536 C178.304412,113.457126 178.344884,114.009146 177.964448,114.11468 L134.805265,125.211912 C133.299712,125.601573 133.663959,127.834009 135.218078,127.736593 L180.117551,124.846604 C180.506081,124.822251 180.63559,125.374271 180.271344,125.528512 L139.896624,143.209399 C138.46392,143.83448 139.160036,146.01009 140.689872,145.669136 L184.318529,135.805832 C184.739436,135.708416 184.974173,136.268555 184.626115,136.503975 L148.468562,160.094727 C147.141085,160.963347 148.193354,163.017187 149.666529,162.424577 L190.737365,145.888321 C191.133989,145.725962 191.457764,146.229275 191.150178,146.521521 L160.100173,175.429527 C158.918394,176.525449 160.318721,178.392577 161.694764,177.548311 L198.880301,154.874887 C199.268831,154.639467 199.689739,155.118426 199.422624,155.483733 L174.532435,188.637425 C173.544922,189.96065 175.3014,191.576122 176.539839,190.488317 L208.634018,162.473285 C208.998265,162.156685 209.532493,162.562582 209.313945,162.992833 L191.231121,199.483001 C190.486439,200.984821 192.518126,202.29181 193.570394,200.984821 L219.974231,168.163965 C219.974231,168.163965 227.469618,171.865748 234.608853,172.539538 C247.284637,173.749112 258.802926,170.956538 265.108441,165.200915 C268.386661,162.21351 270.021724,158.584789 270.021724,154.485226 C270.021724,139.109836 252.926413,133.183735 233.030451,126.324071 C212.600259,119.21275 189.337039,111.159747 178.312506,90.9460614 L135.218078,88.1778418 L135.218078,88.1778418 Z M321.404787,138.41981 C322.230413,142.527491 322.149469,149.833643 322.149469,149.833643 L353.32089,162.408341 C354.810254,163.009069 355.862523,160.938993 354.526951,160.062255 L321.404787,138.41981 L321.404787,138.41981 Z M321.906638,155.849041 C321.76094,159.128691 320.943408,165.119735 320.943408,165.119735 L341.341222,177.548311 C342.717265,178.392577 344.13378,176.525449 342.952002,175.429527 L321.906638,155.849041 Z M318.620324,175.461999 C317.851359,178.011034 316.378183,181.639756 316.378183,181.639756 L326.544713,190.537024 C327.783151,191.616711 329.523441,189.985004 328.535928,188.669897 L318.620324,175.461999 Z" id="Shape" fill="#F5F9F5" transform="translate(251.4917, 107.9565) scale(-1, 1) rotate(-180) translate(-251.4917, -107.9565)"></path>
        </g>
    </g>
</svg>