<?xml version="1.0" encoding="utf-8"?>
<svg version="1.1" xmlns="http://www.w3.org/2000/svg" xmlns:xlink="http://www.w3.org/1999/xlink" x="0px" y="0px" viewBox="0 0 652 652" xml:space="preserve">
<style type="text/css">
	.st0{fill:#004747;}
	.st1{fill-rule:evenodd;clip-rule:evenodd;fill:#004747;}
	.st2{fill:#004747;}
	.st3{fill:#004747;}
	.st4{fill:#004747;}
</style>
<g>
	<path class="st0" d="M510.5,309c-0.3,0-0.7,0-0.7,0c-4.5-0.1-8.7,2.8-8.6,8.8c0.1,5.5,6.6,8.6,10.1,10.7c2.6,1.5,5.3,3.8,5.2,6.4
		c-0.1,4-2.8,6.6-6.1,6.4c-7.8-0.1-6.8-10-8.2-10c-1,0-0.8,2.5-0.8,3.8c0,3.1-0.1,5.7,0.2,6.1c0.1,0.1,0.5,0.1,1.3,0.1
		c1.5,0,3.4,1.7,7.9,1.7c5.1,0.1,9.2-4.4,9.2-10.2c0-3.6-1-5.8-5.9-8.9c-1.3-0.6-3.2-1.7-4.1-2.2c-4-2.2-5.6-3.7-5.8-5.7
		c-0.2-3.6,3.5-5.7,6.1-5.5c3.3,0,6.1,1.9,7.2,6.1c0.1,0.4,0.5,1.4,1,1.4c0.4,0,0.5-0.3,0.4-0.7l-0.6-6.5c0-0.5-0.2-0.7-0.5-0.7
		c-0.4,0-0.6,0.5-1,0.5C516.4,310.7,515.1,308.9,510.5,309"/>
	<path class="st0" d="M526.5,318.4c0-4.3,0-5.6-0.6-5.6c-0.6,0-0.5,0.2-1.1,2.1c-1,3.2-4.5,4.6-5.7,5.3c-0.3,0.1-0.3,0.2-0.3,0.4
		c0,0.4,1.2,0.2,4.1,0.3l0,14.5c0,6.2,3.1,7.3,5.3,7.3c3.4,0,5.8-2.4,5.9-3.2c0-0.5-0.1-0.5-0.3-0.5c-0.5,0.2-1.5,1.4-4.1,1.4
		c-1.9,0-3-1.1-3.1-3.6v-15.8c0,0,5.8,0,6.1,0c0.4,0,1.2-2.5,1.3-2.7c0.1-0.3,0.1-0.6,0.2-0.8c0.1-0.5-0.2-0.5-0.6,0
		c-0.2,0.2-0.7,1-1.9,1H526.5z"/>
	<path class="st0" d="M549.7,313.8c0-5.1,3.5-3.6,3.6-4.6c0-0.6-0.5-0.5-1.1-0.5c-0.7,0-1.9,0.3-4.4,0.3c-2.2,0-4.1-0.2-5.1-0.2
		c-0.6,0-1.1,0.2-0.9,0.7c0.4,1.1,3.8,0.1,3.8,3.2v22.1c0,2.8,0.4,4.5-0.8,5.2c-1.4,0.9-3.1,1-3,1.6c0.1,0.4,0.8,0.4,1.2,0.4
		c1.8,0,4.3-0.2,6.1-0.3c3.4-0.1,6.8,0.2,10.2,0.2c2,0,2.5-0.4,3.9-2.5c1.1-1.5,1.1-1.7,1.1-3.8c0-0.1,0-0.7-0.4-0.7
		c-0.6,0-0.4,4.7-10.8,4.7c-3.8,0-3.4-1.4-3.4-4.9V313.8z"/>
	<path class="st0" d="M537.3,336.3c-0.6,0-2.1,2.5-2.1,3.1s1.5,3.1,2.1,3.1c0.6,0,2.1-2.4,2.1-3.1
		C539.4,338.8,538,336.3,537.3,336.3"/>
	<path class="st0" d="M618,317.3c-3.3-0.1-6.4,2-6.3,6.5c0.1,4,4.8,6.3,7.4,7.9c1.9,1.1,4.1,2.1,4.1,4.7c0,3-2.3,4.9-4.8,4.7
		c-5.8-0.1-5-7.3-6-7.3c-0.7,0-0.6,1.8-0.6,2.8c0,2.3-0.1,4.2,0.2,4.5c0.1,0.1,0.4,0.1,0.9,0.1c1.1,0,2.5,1.3,5.8,1.3
		c3.7,0.1,7.1-3.4,7.1-7.7c0-2.6-0.8-4.3-4.4-6.5c-0.9-0.4-2.3-1.2-3-1.6c-3-1.6-4.2-2.7-4.2-4.2c-0.1-2.6,2.1-4,4-3.8
		c4.6-0.1,5.3,5.1,5.7,5.1c0.7,0,0.5-0.7,0.5-2.2c0-0.4,0-2.3-0.2-2.8c-0.6-0.9-3.9-1.4-4.7-1.4c-0.2,0-1,0-1.1,0
		C618.2,317.2,618,317.3,618,317.3"/>
	<path class="st0" d="M605.8,308.9c-0.6,0-2,2.5-2,3.1s1.4,3,2,3c0.6,0,2-2.3,2-3C607.7,311.3,606.4,308.9,605.8,308.9"/>
	<path class="st0" d="M604.1,336.8c0,5.2-2.3,3.2-2.7,4.5c-0.2,0.6,0.9,0.6,1.3,0.6c0.5,0,1.8-0.5,3.3-0.5c2,0,2.4,0.5,3.4,0.5
		c0.6,0,1.1-0.3,0.9-0.7c-0.4-1.1-2.8-0.2-2.8-3.1v-20.6c0-0.6-0.3-0.9-0.6-0.9c-1.1,0-1.8,2-4.9,3c-0.2,0.1-0.7,0.1-0.7,0.4
		c0,1.2,2.3-1.5,2.6,3.1V336.8z"/>
	<path class="st0" d="M594.9,334.8c-0.2,2.5-2.4,5.2-5.1,5.2c-0.6,0-4.6-0.4-4.5-6.6v-14.8c0-1.1-0.7-1.4-0.8-1.4
		c-0.7,0-1.2,0.2-1.7,0.3c-0.5,0.2-1.2,0.4-2.5,0.4c-0.7,0-1.5-0.1-1.4,0.5c0.1,0.6,3,0,3,2.2v13.6c0,5,3.1,7.8,6.8,7.8
		c2.5,0,4.8-0.5,6.2-3.3h0.1v2.4c0,0.2,0,0.9,0.4,0.9c0.7,0,1.1-0.6,1.6-0.7c0.6-0.1,0.7-0.6,2.4-0.7c0.7-0.1,1.6-0.4,1.6-0.9
		c-0.3-1-2.7,0.1-2.7-1.4v-19.6c0-1.1-0.7-1.4-0.8-1.4c-0.7,0-1.2,0.2-1.7,0.3c-0.5,0.2-1.1,0.4-2.5,0.4c-0.2,0-1.5-0.2-1.4,0.4
		c0.1,0.7,3,0.3,3,2.2V334.8z"/>
	<path class="st1" d="M570,342.3c5.5,0,10-5.6,10-12.7c0-10.8-6.6-12.8-10-12.8c-5.6,0-10.1,6.1-10.1,13.2
		C559.9,337.8,564.3,342.3,570,342.3 M570.5,340.9c-5.2,0-7.3-7.3-7.3-13c0-4.9,1.7-9.5,6.1-9.5c5.3,0,7.2,6.2,7.2,12.2
		C576.4,337.7,574.2,340.9,570.5,340.9"/>
	<path class="st0" d="M476.6,323.7c0-0.9,1.6-4.5,5.7-4.5c3.9,0,5.7,4.3,5.7,7.2v10.8c0,3.8-1.5,2.9-2.1,3.8
		c-0.3,0.5,0.2,0.7,0.9,0.7c0.6,0,1.6-0.2,3.5-0.2c2.4,0,3.6,0.2,4.2,0.2c0.5,0,1.4-0.4,0.8-0.8c-1.2-1-3.8,0.1-3.8-3.9v-9.6
		c0-4.4-1.4-10.8-7.9-10.8c-4.7,0-7.1,4.3-7,3.6v-3.1c0-0.6-0.3-0.9-0.6-0.9c-1.1,0-1.9,1.9-5.7,3c-0.2,0.1-0.9,0.1-1,0.5
		c0,1.2,3.7-0.8,3.7,3.2v14.4c0,2.6-1.3,3.2-3.6,3.3c-0.5,0.1,0.3,0.3,0.1,0.6c-0.3,0.5,0.9,0.6,1.5,0.6c0.6,0,1.5-0.2,4.1-0.2
		c2.8,0,3.8,0.2,4.6,0.2c0.7,0,1.6-0.3,1.1-0.8c-0.8-0.8-4.3,0.1-4.3-3.9V323.7z"/>
	<path class="st0" d="M464.7,307.7c-0.6,0-2,2.5-2,3.1c0,0.6,1.5,3.1,2,3.1c0.6,0,2-2.4,2-3.1C466.7,310.1,465.3,307.7,464.7,307.7"
		/>
	<path class="st0" d="M463.1,336.3c0,5.4-2.3,3.3-2.7,4.6c-0.2,0.6,0.9,0.7,1.3,0.7c0.5,0,1.8-0.2,3.4-0.2c2,0,3.5,0.4,4.5,0.4
		c3.8-0.2,1.1-0.4,0.9-0.8c-0.1-0.3,1.9-1.1-0.2-0.4c-2.2-0.2-3.7-0.6-3.7-2.8l0-14.9l0-5.8c0-0.6-0.3-0.9-0.6-0.9
		c-1.1,0-1.8,2.1-4.9,3.1c-0.2,0.1-0.8,0.1-0.8,0.5c0,1.2,2.9-1.2,2.8,3.3V336.3z"/>
	<path class="st1" d="M367.2,325c0-3.3,2.2-7.5,5.3-7.5c2.7,0,5.5,3,5.5,6.3c0,0.9-0.3,1.2-1,1.2H367.2z M380.4,326.7
		c1.1,0,1.7,0.1,1.7-1c0-2.4-2.7-9.5-8.8-9.5c-6.2,0-9.7,6.4-9.7,14c0,3.9,2.6,12.2,10,12.2c4.5,0,8.8-4.3,8.8-5.7
		c0-0.2,0-0.4-0.2-0.4c-1.1,0-2.7,3.1-7,3.1c-3,0-8-2.9-8-12.8H380.4z"/>
	<path class="st0" d="M404.1,316.3c-3.4-0.1-6.6,2.1-6.5,6.6c0.1,4.1,5,6.5,7.6,8.1c1.9,1.1,4.2,2.2,4.2,4.8c0,3-2.4,5-4.9,4.9
		c-5.9-0.1-5.1-7.5-6.2-7.5c-0.7,0-0.6,1.9-0.6,2.9c0,2.3-0.1,4.3,0.2,4.6c0.1,0.1,0.4,0.1,0.9,0.1c1.2,0,2.6,1.3,6,1.3
		c3.8,0.1,7.2-3.5,7.2-7.8c0-2.7-0.8-4.4-4.5-6.7c-1-0.5-2.4-1.3-3.1-1.7c-3-1.7-4.2-2.8-4.3-4.3c-0.1-2.7,2.2-4.1,4.1-3.9
		c4.8-0.1,5.4,5.2,5.9,5.2c0.7,0,0.5-0.7,0.5-2.3c0-0.4,0.1-2.4-0.2-2.9c-0.6-0.9-3.9-1.4-4.8-1.4c-0.2,0-1,0-1.1,0
		C404.4,316.2,404.1,316.3,404.1,316.3"/>
	<path class="st0" d="M417.7,307.4c-0.6,0-2.1,2.5-2.1,3.2c0,0.7,1.5,3.1,2.1,3.1c0.6,0,2.1-2.4,2.1-3.1
		C419.8,309.8,418.3,307.4,417.7,307.4"/>
	<path class="st0" d="M416,336.2c0,5.4-2.4,3.3-2.8,4.7c-0.2,0.6,0.9,0.7,1.3,0.7c0.5,0,1.8-0.2,3.4-0.2c2,0,3.6,0.2,4.6,0.2
		c0.6,0,1.1-0.2,0.9-0.7c-0.4-1.2-3.9-0.2-3.9-3.3v-21.4c0-0.6-0.3-1-0.6-1c-1.1,0-1.9,2.1-5.1,3.2c-0.2,0.1-0.8,0.1-0.8,0.5
		c0,1.3,2.9-1.3,2.9,3.3V336.2z"/>
	<path class="st0" d="M288.3,311c0-3.7,2.7-2.9,2.7-3.8c0.1-0.8-2.4-0.3-2.6-0.3c-1.3,0-2.2,0.1-3.5,0.1c-1.1,0-2.5-0.2-3.5-0.2
		c-0.2,0-1,0-1.1,0.3c-0.4,1.1,3.4,0.5,3.4,3.6v16.2c0,8,2.1,15.8,12.8,15.6c12.8-0.2,12.6-12.8,12.6-15.3v-14.8
		c0-4.8,2.1-4.3,2.5-5c0.2-0.3-0.4-0.5-0.7-0.5c-0.7,0-2.4,0.2-3.2,0.2c-1.6,0-2.9-0.2-4.5-0.2c-0.1,0-0.8,0.1-0.8,0.4
		c0,1.2,3.8-0.2,3.8,5.1v15.5c0,6.1-1.8,12.5-9.5,12.5c-5.5,0-8.5-3.8-8.5-12.1V311z"/>
	<path class="st0" d="M429.7,317.5c0-4.4,0.1-5.5-0.6-5.5c-0.7,0-0.6,0.2-1.2,2.1c-1,3.3-4.6,4.7-5.7,5.4c-0.3,0.1-0.3,0.2-0.3,0.4
		c0,0.4,1.3,0.2,4.1,0.3l0,14.7c0,6.3,3.1,7.4,5.3,7.4c3.4,0,5.9-2.4,6-3.3c0-0.5-0.1-0.5-0.3-0.5c-0.5,0.2-1.6,1.4-4.1,1.4
		c-2,0-3.1-1.2-3.2-3.7v-16c0,0,5.8,0,6.2,0c0.4,0,1.2-2.4,1.3-2.5c0.1-0.3-0.1-0.2-2.3-0.2H429.7z"/>
	<path class="st0" d="M317.7,323.2c0-0.9,1.7-4.6,5.8-4.6c4,0,5.7,4.4,5.7,7.3v11c0,3.8-1.5,2.9-2.1,3.8c-0.3,0.5,0.2,0.7,0.9,0.7
		c0.6,0,1.7-0.3,3.5-0.2c2.2,0.1,3.6,0.2,4.3,0.2c0.5,0,2.6-2.2,1.9-2.2c-0.2,0-0.9,1.1-2.1,1.1c-0.3,0-0.4,0.1-1-0.1
		c-1.1-0.3-1.9-0.8-1.9-3.5V327c0-4.5-1.4-11-8-11c-4.8,0-7.2,4.3-7.1,3.6v-3.2c0-0.6-0.3-0.9-0.6-0.9c-1.1,0-1.4,2.3-5.4,3.1
		c-0.2,0.1-0.9,0.1-1,0.5c0,1.2,3.4-1.1,3.4,3.2v14.6c0,3.8-2.9,2.9-3.5,3.9c-0.3,0.5,0.9,0.6,1.5,0.6c0.6,0,1.6-0.2,4.2-0.2
		c2.8,0,3.8,0.2,4.7,0.2c0.7,0,1.6-0.3,1.1-0.8c-0.8-0.8-4.3,0.1-4.3-3.9V323.2z"/>
	<path class="st0" d="M350.6,322.6c-0.6-1.8-0.8-2.7-0.8-2.9c0-1.8,2.2-1.4,2.7-2.1c0.3-0.5-0.3-0.7-1-0.7c-0.6,0-1.3,0.2-3.1,0.2
		c-1.5,0-2.6,0-3.3-0.1c-1.7-0.3-1.6,0.6-1,0.9c0.6,0.3,0.9,0,1.7,2.5l7.5,20.6c0.1,0.4,0.3,1.4,1,1.4c0.7,0,0.7-0.7,1.7-3.2
		c0,0,7.2-19.5,7.7-20.2c1-1.4,1.7-0.9,2.1-1.3c0.3-0.4,0.4-1-1.1-0.9c-0.8,0-1.5,0.1-2.3,0.1c-1.1,0-1.3,0-2.3-0.1
		c-1.3,0-1.7,0.1-1.6,0.5c0.2,1.1,3,0,2.6,3.3c-0.3,2.8-1.2,5.2-2.2,7.6l-3.3,8.6L350.6,322.6z"/>
	<path class="st0" d="M388.9,323.3c0-0.8,1.2-3.4,3.1-3.4c1.7,0,2,1.3,2.9,1.3c0.6,0,1.7-1.7,1.7-2.6c0-1.1-2.2-2.6-3.2-2.6
		c-2,0-3.5,2.4-4.5,4.1h-0.1v-3.7c0-0.6-0.3-0.9-0.6-0.9c-0.8,0-1.4,1.6-5.5,2.5c-0.2,0.1-0.9,0.2-0.9,0.5c0,1.2,3.5-0.4,3.5,3.7
		v15.4c0,2.4-2.5,2.1-2.5,3.4c0,0.3,0.1,0.5,0.5,0.5c0.3,0,1.2-0.2,4.4-0.2c2.7,0,3.9,0.2,4.5,0.2c0.5,0,0.8-0.1,0.8-0.6
		c0-1.9-4.3,0.9-4.3-4.5V323.3z"/>
	<path class="st0" d="M339.9,307.3c-0.6,0-2.1,2.5-2.1,3.2c0,0.7,1.5,3.1,2.1,3.1c0.6,0,2.1-2.4,2.1-3.1
		C342,309.8,340.6,307.3,339.9,307.3"/>
	<path class="st0" d="M338.1,336.2c0,3.9-1.7,4.1-2.5,4.1c-0.7,0.1-1.7-0.3-1.7,0.2c0.1,0.6-0.5,0.8,2.1,1c1.2,0,2.4-0.2,4-0.2
		c2,0,3.6,0.2,4.6,0.2c0.6,0,1.1-0.2,0.9-0.7c-0.4-1.2-3.9-0.2-3.9-3.3v-21.4c0-0.6-0.3-1-0.6-1c-1.1,0-1.9,2.1-5.1,3.2
		c-0.2,0.1-0.7,0.1-0.7,0.5c0,1.3,2.7-1.2,2.7,3.3V336.2z"/>
	<path class="st1" d="M445,342.3l6.8-20.6c1-3.6,2.6-2.9,2.8-3.4c0.1-0.3-0.1-0.6-0.7-0.6c-0.5,0-1.8,0.1-2.9,0.1
		c-1.4,0-2.1-0.2-2.7-0.2c-0.9,0-1.8,0-1.6,0.6c0.2,0.6,3.2,0.4,3.2,3.6c0,0.4,0,1-0.6,3.1l-3.8,12l-5.3-14.7c0,0-0.2-0.5-0.2-1.4
		c0-2.4,2.8-2.1,2.9-2.5c0.1-0.3-0.4-0.7-1.1-0.7c-0.8,0-2,0-3.7,0c-1.4,0-2.4,0-3.4,0c-0.7,0-1,0.1-1,0.7c0,0.8,1.9,0.9,2.3,2.2
		l5.5,15.3c0.4,1.3,0.7,1.7,1.3,3.9c0.4,1.4,0.2,2.7,0.2,2.7c-0.5,2.3-2,3.6-4.2,7.8c-0.2,0.4,3.2,0,3.3-0.1
		c0.3-0.1,0.2-0.2,0.6-0.8l2.5-7.5L445,342.3z"/>
	<path class="st0" d="M97.4,322.4l-1.6-4.3c0,0-0.3,0.1,0.9-3.4l2.2-6.8c1.1-3.3,2.2-5.1,3.6-5.1c1.8,0,1.8-1.1,0.4-1.1
		c-1.3,0-2.2,0.1-3.4,0.1c-1.2,0-1.9-0.1-3.2-0.1c-0.5,0-1,0.2-1,0.6c0,0.4,0.8,0.3,1.3,0.6c0.9,0.5,1.5,2.4,0.8,4.4l-2.6,8.5
		l-3-7.9c-0.6-1.5-1.4-4.8,0.1-5.1c1.4-0.3,1.2-1,0.4-1c-1.6,0-2.5,0.2-4.1,0.2c-1.7,0-3-0.2-4.7-0.2c-0.4,0-1,0.1-0.8,0.7
		c0.1,0.4,1,0.3,1.4,0.6c2,1.3,2.4,3,3.1,4.8l4.4,12.5c0.8,2.2,0.8,1.4,0.2,3.3L88,334.3l-9.4-27.2c-0.7-2-1.1-3.4,0.5-4.2
		c0.7-0.4,0.9-0.4,1-0.6c0.1-0.1,0.2-0.6-0.8-0.6c-1.7,0.1-2.7,0.2-4.4,0.2c-1.8,0-3-0.2-4.7-0.2c-0.6,0-0.7,0.3-0.7,0.7
		c0,0.6,1.4,0.2,2.5,1.6c0.7,0.7,1.9,3.2,2.2,4.1l11.4,32.9c0.2,0.5,0.3,1.5,0.9,1.4c0.5,0,0.6-1.1,0.8-1.5l6-16.5l5.8,15.7
		c0.3,0.6,0.6,2.3,1.2,2.3c0.5,0,0.7-0.8,0.9-1.6l11.3-32.5c1-2.6,2.1-5.4,3.9-5.7c0.7-0.1,1-0.4,1-0.4c0-0.5-0.1-0.6-0.7-0.6
		c-1.2,0-2,0.2-3.2,0.2c-1.3,0-2.4-0.2-3.5-0.2c-0.7,0-0.6,0.2-0.6,0.6c0,0.4,1.3,0.2,2,1.7c0.4,0.8,0.3,2.6-0.2,3.6l-9.6,26.4
		L97.4,322.4z"/>
	<path class="st1" d="M241.9,341.9c6.1,0,10.7-5.6,10.7-12.9c0-11.1-7-13.3-10.8-13.3c-6.3,0-11.1,6.3-11.1,13.6
		C230.8,337.4,235.5,341.9,241.9,341.9 M242.4,340.2c-5.8,0-8.1-7.2-8.1-13c0-5.1,2-9.7,6.8-9.7c5.9,0,8,6.3,8,12.4
		C249.2,337.3,246.5,340.2,242.4,340.2"/>
	<path class="st0" d="M226.1,316.5c0-4.6,0.1-6.2-0.7-6.2c-0.7,0-0.6,0.2-1.2,2.2c-1,3.4-4.8,4.9-6,5.7c-0.3,0.1-0.3,0.2-0.3,0.4
		c0,0.4,1.4,0.3,4.4,0.3l0,15.5c0,6.6,3.1,7.7,5.5,7.7c3.6,0,6.1-2.5,6.3-3.5c0-0.5-0.1-0.6-0.4-0.5c-0.5,0.2-1.6,1.5-4.4,1.5
		c-2,0-3.2-1.2-3.3-3.8v-16.5c0,0,6.1,0,6.5,0c0.4,0,1.2-2.8,1.3-2.9c0.1-0.3,0.2-0.6,0.2-0.9c0.1-0.5-0.3-0.6-0.7,0
		c-0.3,0.3-0.6,1.1-1.9,1.1H226.1z"/>
	<path class="st0" d="M258.7,322.9c-0.1-1,1.7-4.6,5.9-4.6c4,0,5.8,4.5,5.8,7.4v11.1c0,4.4-1.5,3-2.1,3.9c-0.3,0.5,0.2,0.7,0.9,0.7
		c0.6,0,1.7-0.2,3.6-0.2c2.4,0,3.5,0.2,4.1,0.2c0.5,0,1.4-0.4,0.8-0.8c-1.3-1-3.7,0.5-3.7-4v-9.8c0-4.5-1.4-11.1-8.1-11.1
		c-4.8,0-7.3,4.6-7.2,3.9v-3.4c0-0.6-0.3-1-0.6-1c-1.1,0-2,2-5.9,3.1c-0.2,0.1-1,0.1-1,0.5c0,1.3,3.9-1.6,3.8,3.3v14.8
		c0,3.9-2.6,2.9-3.2,3.9c-0.3,0.5,0.5,0.6,1.1,0.6c0.6,0,1.6-0.2,4.2-0.2c2.9,0,3.9,0.2,4.7,0.2c0.7,0,1.6-0.3,1.1-0.8
		c-0.8-0.8-4.4,0.1-4.4-4V322.9z"/>
	<path class="st1" d="M121.3,326.4c-11.6,2.3-13.3,6.2-13.3,9.3c0,4.2,3,6.1,6.2,6.1c2.8,0,5.5-1.3,7.6-3.5c0.6,2,1.9,3.2,3.9,3.1
		c0.7,0,0.8,0.2,2.8-0.7c0.7-0.2,0.6-0.2,1.6,0c1.5,0.2-2-5.6-2.2-4.2c0,0.4,0.2,3.1-1.1,3.1c-2.4,0.1-1.8-3.6-1.8-5.7v-12.3
		c-0.1-3.8-3-6.2-7.3-6.2c-5.9,0-10.2,7.3-8.2,9.6c0.5,0.5,2.4-1.5,2.5-1.7c0.1-0.1,0.1-0.2,0.1-0.2c0-2.5,1.9-5.7,4.5-5.9
		c3.1-0.3,4.6,2,4.6,5.1V326.4z M121.7,335.3c0,3.2-3.2,4.8-5,4.8c-2.6,0-4.5-1.7-4.5-5.1c0-5.2,6.3-6.2,9.5-7V335.3z"/>
	<path class="st0" d="M134.6,315.7c-3.5-0.1-6.6,2.3-6.5,6.9c0.1,4.2,4.9,6.5,7.6,8.1c2,1.1,4.3,2.6,4.2,5c-0.1,3.1-2.3,5.1-4.9,4.9
		c-6-0.1-5.4-7.7-6.5-7.7c-0.7,0-0.6,1.9-0.6,2.9c0,2.4,0.8,3.5,0.8,4.4c0.7,0.1-0.2,0.3,0.4,0.3c1.2,0,2.9,1.3,6.4,1.3
		c3.9,0.1,7.4-3.5,7.4-8c0-2.7-0.8-4.5-4.6-6.8c-1-0.5-2.4-1.3-3.2-1.7c-3.1-1.7-4.3-2.8-4.4-4.4c-0.1-2.8,2.2-4.2,4.2-4
		c4.9-0.1,5.5,5.4,6,5.4c0.7,0,0.5-0.7,0.5-2.3c0-0.4,0.1-2.4-0.2-2.9c-0.6-0.9-4-1.4-4.9-1.4c-0.2,0-1,0-1.1,0
		C134.9,315.6,134.6,315.7,134.6,315.7"/>
	<path class="st0" d="M148.9,302.9c0-0.6-0.3-0.9-0.6-1c-0.8,0-2,2.3-5.7,3.1c-0.2,0.1-1.2,0.1-1.2,0.5c0,1.2,3.8-0.6,3.8,3.3v28.5
		c0,2.9-2.5,2.5-2.9,3.5c-0.1,0.4,0.1,0.6,0.5,0.6c0.8,0,3-0.2,4.5-0.2c1.5,0,4,0.2,5.1,0.2c0.6,0,0.8-0.1,0.8-0.8
		c-0.5-1-4.4,0.5-4.4-4.6v-12.6c0-3,3.6-5.4,5.8-5.4c1.7,0,6,1.4,6,8.8v10.9c0,2.1-2.3,2.4-2.4,3c0,0.5,0.3,0.7,0.8,0.7
		c0.5,0,2.1-0.2,4.1-0.2c1.9,0,3.5,0.2,4.4,0.2c0.5,0,0.9-0.1,0.7-0.7c-0.1-0.3,0-0.6-0.8-0.5c-1.7-0.1-3.2-0.4-3.2-2.8v-9.9
		c0-5.1-1.9-11.7-8.3-11.7c-2.8,0-5.3,1.6-7.1,3.7V302.9z"/>
	<path class="st0" d="M171.1,307.9c-0.6,0-2,2.4-2,3.1c0,0.6,1.5,3,2,3c0.6,0,2-2.3,2-3C173.1,310.3,171.7,307.9,171.1,307.9"/>
	<path class="st0" d="M169.4,336.1c0.1,3.6-1.8,3.9-2.9,3.9c-1.6,0-1.2,0.2-1.2,0.7c0.1,0.6,1,0.6,2.6,0.6c0.5,0,1.9-0.2,3.5-0.2
		c2,0,3.6,0.2,4.6,0.2c0.6,0,1.5-1.6,0.1-1.3c-1-0.1-3.1-0.4-3.1-2.6v-21.4c0-0.6-0.3-1-0.6-1c-1.1,0-1.9,2.1-5.1,3.2
		c-0.2,0.1-0.7,0.1-0.7,0.5c0,1.3,2.8-1.2,2.7,3.3V336.1z"/>
	<path class="st0" d="M183.1,322.9c-0.1-1,1.7-4.6,5.9-4.6c4,0,5.8,4.5,5.8,7.4v11.1c0,3.9-1.5,3-2.1,3.9c-0.3,0.5,0.2,0.7,0.9,0.7
		c0.6,0,1.7-0.2,3.6-0.2c2.4,0,3.7,0.2,4.3,0.2c0.5,0,1.4-0.4,0.8-0.8c-1.3-1-3.9,0.1-3.9-4v-9.8c0-4.5-1.4-11.1-8.1-11.1
		c-4.8,0-7.3,4.6-7.2,3.9v-3.4c0-0.6-0.3-1-0.6-1c-1.1,0-1.4,1.9-5.6,3c-0.2,0.1-0.8,0.2-0.8,0.6c0,1.3,3.4-1.4,3.4,3.3v14.8
		c0,3.2-2.5,3.2-2.9,3.2c-0.5,0-1.1,0.1-2.2-0.1c-1.3-0.2-0.2,0.9-0.4,1.1c-0.3,0.5,2.8,0.4,3.5,0.4c0.6,0,1.6-0.2,4.2-0.2
		c2.9,0,3.9,0.2,4.7,0.2c0.7,0,1.6-0.3,1.1-0.8c-0.8-0.8-4.4,0.1-4.4-4V322.9z"/>
	<path class="st1" d="M203.5,339.1c-1.8,0.7-3.6,2.8-3.8,5c-0.3,4.8,5.6,6.6,10.6,6.5c9.8-0.1,12.6-7,10.6-10.6
		c-2.1-3.8-6.6-3.6-10.9-3.6c-8.1,0-6.5-5-3.3-4.8c0.8,0,0.4,0.3,3,0.3c4.7,0,9.1-3.2,9-8.5c0-0.4,0.1-2-1-4.1c2.5,0,0.9,0,6.6,0
		c0.3,0-0.2-5.7-2.3-3.5c-0.5,0.3-2.5,2-5.3,1.4c-1.4-0.3-3.1-2-7.3-2c-4.6,0-8.5,3.8-8.5,8.8c0,2.7,1.2,5.3,3.3,6.7
		c-0.4,0.2-2.9,2.4-2.6,4.9C201.5,335.5,201.4,338.2,203.5,339.1 M215.3,324.1c0,3.7-1.7,6.6-5.5,6.6c-4,0-5.3-3.9-5.3-7.6
		c0-3.8,1.1-6.9,5.1-6.9C213.7,316.3,215.3,320.4,215.3,324.1 M204.1,346.2c-1.6-2.3-0.3-6.5,1.8-6.6c0.4,0,0.5,0.1,5.1,0.3
		c4.7,0.1,6.4,1.5,6.7,2.7c0.5,2.2-1,6.8-7.8,6.4C205.7,348.7,204.4,346.7,204.1,346.2"/>
	<path class="st2" d="M64.8,335.1v-33c-12.1,3.2-26.1,3.2-39,0.1c0,1.5,0,24.9,0,33c0,2.9-0.6,4.9,10.8,9.1c2.6,0.9,6,2.1,8.7,3.1
		c2.5-0.9,5-1.7,7.4-2.7C56.6,343,64.8,341.6,64.8,335.1"/>
	<rect x="27.4" y="312" class="st3" width="35.7" height="21.2"/>
	<polygon class="st4" points="52.8,327.2 46.4,327.2 45.3,328.2 44.3,327.2 37.9,327.2 37.9,316.7 44.3,316.7 45.3,317.7 
		46.4,316.7 52.8,316.7 	"/>
	<polygon class="st4" points="55.7,330 46.9,330 45.3,331.5 43.7,330 35.2,330 35.2,318.8 36.6,317.7 36.6,328.5 44.2,328.5 
		45.4,329.7 46.8,328.5 54.1,328.5 54.2,317.7 55.7,318.9 	"/>
	<path class="st4" d="M63.1,324.7l-6,1.2c-0.1-0.4,0-6,0-6c2-0.3,3.5-0.8,6-1.3V324.7z"/>
	<path class="st4" d="M33.7,326.1c-2.1-0.2-3.5-0.5-6.3-1.2v-6.1c2.5,0.7,4.4,0.7,6.3,1.2V326.1z"/>
	<path class="st4" d="M63.1,335.9c-0.5,4.1-5.3,5.3-6.7,6c-3.7,1.4-7.4,2.6-11,4.1c-14.2-5.4-17.7-6.1-17.9-10.2c0,0,0-4.3,0-4.6
		c11.2,2.5,23.8,2.8,35.7,0.1V335.9z"/>
	<path class="st4" d="M63.1,312.6c-11.4,2.6-24.4,3-35.6,0v-8.3c10.9,2.4,24.9,2.8,35.6,0V312.6z"/>
	<polygon class="st2" points="61.7,308.5 59.1,308.4 58.2,305.8 57.3,308.4 54.7,308.5 56.9,309.9 56.1,312.5 58.2,310.9 
		60.4,312.5 59.7,309.9 	"/>
	<path class="st2" d="M35.7,308.5l-2.4-0.1c0,0-1-2.6-1-2.6l-0.8,2.6l-2.6,0.1l2.1,1.4l-0.7,2.6l2.1-1.5l2.3,1.5l-0.9-2.6
		L35.7,308.5z"/>
	<polygon class="st2" points="48.6,309.5 46,309.4 45.1,307 44.3,309.4 41.8,309.5 43.9,311.1 43,313.6 45.2,312.1 47.4,313.6 
		46.5,311.1 	"/>
	<polygon class="st2" points="34.3,335.5 34.3,333.7 33.6,333 32.9,333.7 32.9,335.5 33.3,336.4 33.3,338 33.9,338 33.9,336.4 	"/>
	<polygon class="st2" points="36.9,336.4 36.9,335.6 35.1,335.6 34.3,336.5 34.3,338 34.9,338 34.9,337 35.5,336.4 36.3,337 	"/>
	<polygon class="st2" points="30.3,336.4 30.3,335.6 32.1,335.6 32.9,336.5 32.9,338 32.3,338 32.3,337 31.7,336.4 30.9,337 	"/>
	<polygon class="st2" points="32.9,339.2 32.9,338.5 31.7,338.5 31.7,339 32.5,339.7 	"/>
	<polygon class="st2" points="34.3,339.2 34.3,338.5 35.4,338.5 35.4,339 34.7,339.7 	"/>
	<polygon class="st2" points="34.3,340 33.9,339.3 33.9,338.5 33.3,338.5 33.3,339.3 32.9,340 33.5,340.8 	"/>
	<polygon class="st2" points="46.6,337.3 46.6,334.6 45.6,333.7 44.6,334.6 44.6,337.3 45.2,338.7 45.2,341 46,341 46,338.7 	"/>
	<polygon class="st2" points="50.4,338.7 50.4,337.4 47.8,337.4 46.6,338.8 46.6,341 47.5,341 47.5,339.6 48.5,338.7 49.6,339.5 	
		"/>
	<polygon class="st2" points="40.8,338.7 40.8,337.4 43.4,337.4 44.5,338.8 44.5,341 43.7,341 43.7,339.6 42.7,338.7 41.5,339.5 	
		"/>
	<polygon class="st2" points="44.5,342.8 44.5,341.8 42.8,341.8 42.8,342.5 44,343.5 	"/>
	<polygon class="st2" points="46.6,342.8 46.6,341.8 48.3,341.8 48.3,342.5 47.2,343.5 	"/>
	<polygon class="st2" points="46.6,343.9 46,342.9 46,341.8 45.2,341.8 45.2,342.9 44.5,343.9 45.5,345.2 	"/>
	<polygon class="st2" points="57.8,335.4 57.8,333.6 57.2,332.9 56.5,333.6 56.5,335.4 56.9,336.3 56.9,337.9 57.5,337.9 
		57.5,336.3 	"/>
	<polygon class="st2" points="60.5,336.3 60.5,335.5 58.7,335.5 57.9,336.4 57.9,337.9 58.5,337.9 58.5,336.9 59.1,336.3 
		59.9,336.8 	"/>
	<polygon class="st2" points="53.9,336.3 53.9,335.5 55.7,335.5 56.5,336.4 56.5,337.9 55.9,337.9 55.9,336.9 55.2,336.3 
		54.4,336.8 	"/>
	<polygon class="st2" points="56.5,339.1 56.5,338.4 55.3,338.4 55.3,338.9 56.1,339.5 	"/>
	<polygon class="st2" points="57.9,339.1 57.9,338.4 59,338.4 59,338.9 58.3,339.5 	"/>
	<polygon class="st2" points="57.8,339.9 57.5,339.2 57.5,338.4 56.9,338.4 56.9,339.2 56.5,339.9 57.1,340.7 	"/>
</g>
</svg>
